<?xml version="1.0" encoding="UTF-8" standalone="no"?>
<svg
   xmlns:dc="http://purl.org/dc/elements/1.1/"
   xmlns:cc="http://creativecommons.org/ns#"
   xmlns:rdf="http://www.w3.org/1999/02/22-rdf-syntax-ns#"
   xmlns:svg="http://www.w3.org/2000/svg"
   xmlns="http://www.w3.org/2000/svg"
   xmlns:sodipodi="http://sodipodi.sourceforge.net/DTD/sodipodi-0.dtd"
   xmlns:inkscape="http://www.inkscape.org/namespaces/inkscape"
   id="svg10643"
   height="32"
   width="32"
   version="1.0"
   inkscape:version="0.92.4 (5da689c313, 2019-01-14)"
   sodipodi:docname="uktides_pi_rollover.svg">
  <sodipodi:namedview
     pagecolor="#ffffff"
     bordercolor="#666666"
     borderopacity="1"
     objecttolerance="10"
     gridtolerance="10"
     guidetolerance="10"
     inkscape:pageopacity="0"
     inkscape:pageshadow="2"
     inkscape:window-width="750"
     inkscape:window-height="480"
     id="namedview4231"
     showgrid="false"
     inkscape:zoom="7.375"
     inkscape:cx="16"
     inkscape:cy="16"
     inkscape:window-x="80"
     inkscape:window-y="212"
     inkscape:window-maximized="1"
     inkscape:current-layer="svg10643" />
  <defs
     id="defs10645">
    <radialGradient
       id="radialGradient4286"
       gradientUnits="userSpaceOnUse"
       cy="16"
       cx="16"
       gradientTransform="matrix(1.7118,-0.022772,0.018375,1.3813,-11.683,-5.7368)"
       r="16">
      <stop
         id="stop4146"
         stop-color="#82e6fb"
         offset="0" />
      <stop
         id="stop4148"
         stop-opacity="0"
         stop-color="#82e6fb"
         offset="1" />
    </radialGradient>
    <linearGradient
       id="E"
       x1="73.009"
       gradientUnits="userSpaceOnUse"
       x2="73.009"
       gradientTransform="matrix(1.0329,0,0,1.0329,-59.414,-1122.2)"
       y1="1086.4"
       y2="1055.4">
      <stop
         id="stop4324"
         stop-color="#fff"
         offset="0" />
      <stop
         id="stop4326"
         stop-color="#939393"
         offset="1" />
    </linearGradient>
    <linearGradient
       id="F"
       x1="73.009"
       gradientUnits="userSpaceOnUse"
       x2="73.009"
       gradientTransform="matrix(1.0329,0,0,1.0329,-59.414,-1090.2)"
       y1="1086.4"
       y2="1070.9">
      <stop
         id="stop3297-5-3-1-9-9"
         stop-color="#fff"
         offset="0" />
      <stop
         id="stop4354-4-5-0-3"
         stop-color="#fff"
         stop-opacity="0"
         offset="1" />
    </linearGradient>
  </defs>
  <metadata
     id="metadata10648">
    <rdf:RDF>
      <cc:Work
         rdf:about="">
        <dc:format>image/svg+xml</dc:format>
        <dc:type
           rdf:resource="http://purl.org/dc/dcmitype/StillImage" />
        <dc:title />
      </cc:Work>
    </rdf:RDF>
  </metadata>
  <g
     id="g43537"
     style="enable-background:new"
     transform="translate(-2.5e-4,-2.4986e-4)">
    <rect
       id="rect4364"
       style="fill:#ffffff;enable-background:new"
       ry="3.878"
       transform="scale(1,-1)"
       width="32"
       y="-32"
       x="0"
       height="32" />
    <rect
       id="rect4366"
       style="fill:url(#radialGradient4286);enable-background:new"
       ry="3.878"
       height="32"
       width="32"
       y="0.00049973"
       x="0" />
    <rect
       id="rect4426"
       style="fill:none;stroke:#939393;stroke-width:1.02100003;stroke-linecap:round;stroke-linejoin:round;enable-background:new"
       ry="3.7550001"
       height="30.979"
       width="30.979"
       y="0.51050001"
       x="0.51099998" />
  </g>
  <rect
     style="display:inline;fill:#ffffff;fill-opacity:1"
     id="rect813"
     width="7.6897864"
     height="23.157747"
     x="12.404196"
     y="4.4429483" />
  <rect
     style="display:inline;fill:#ffffff;fill-opacity:1"
     id="rect817"
     width="2.2980971"
     height="0.17677669"
     x="17.619108"
     y="7.7133188" />
  <rect
     style="display:inline;fill:#ffffff;fill-opacity:1;stroke-width:1.01105011"
     id="rect819"
     width="4.0658646"
     height="2.2097092"
     x="16.028118"
     y="7.6249304" />
  <rect
     style="display:inline;fill:#ffffff;fill-opacity:1"
     id="rect819-2"
     width="3.9774761"
     height="2.2097092"
     x="16.1607"
     y="12.088542" />
  <rect
     style="display:inline;fill:#ffffff;fill-opacity:1"
     id="rect819-23"
     width="3.9774761"
     height="2.2097092"
     x="16.1607"
     y="16.507956" />
  <rect
     style="display:inline;fill:#ffffff;fill-opacity:1;stroke-width:1.01105011"
     id="rect819-8"
     width="4.0658646"
     height="2.2097092"
     x="16.072311"
     y="20.927374" />
  <rect
     style="display:inline;fill:#ffffff;fill-opacity:1;stroke-width:1.01105011"
     id="rect819-82"
     width="4.0658646"
     height="2.2097092"
     x="16.072311"
     y="25.346792" />
  <path
     id="path49"
     style="color:#000000;font-style:normal;font-variant:normal;font-weight:normal;font-stretch:normal;font-size:medium;line-height:normal;font-family:sans-serif;font-variant-ligatures:normal;font-variant-position:normal;font-variant-caps:normal;font-variant-numeric:normal;font-variant-alternates:normal;font-feature-settings:normal;text-indent:0;text-align:start;text-decoration:none;text-decoration-line:none;text-decoration-style:solid;text-decoration-color:#000000;letter-spacing:normal;word-spacing:normal;text-transform:none;writing-mode:lr-tb;direction:ltr;text-orientation:mixed;dominant-baseline:auto;baseline-shift:baseline;text-anchor:start;white-space:normal;shape-padding:0;clip-rule:nonzero;display:inline;overflow:visible;visibility:visible;opacity:1;isolation:auto;mix-blend-mode:normal;color-interpolation:sRGB;color-interpolation-filters:linearRGB;solid-color:#000000;solid-opacity:1;vector-effect:none;fill-opacity:1;fill-rule:nonzero;stroke:none;stroke-width:1;stroke-linecap:butt;stroke-linejoin:miter;stroke-miterlimit:4;stroke-dasharray:none;stroke-dashoffset:0;stroke-opacity:1;color-rendering:auto;image-rendering:auto;shape-rendering:auto;text-rendering:auto;enable-background:accumulate"
     d="m 9.5278748,8.0469856 c -3.049584,0 -5.657117,1.871276 -6.636719,4.4882824 h 0.02734 c 0.0061,6.27e-4 0.01762,-0.0036 0.02344,-0.002 9.49e-4,2.64e-4 0.0029,0.0016 0.0039,0.002 h 0.06055 c 0.03367,-0.01346 0.0618,-0.03125 0.111328,-0.03125 h 0.343746 0.203125 0.1875 0.144531 c 0.932971,-2.028425 3.039669,-3.4570324 5.53125,-3.4570324 1.9094962,0 3.5904022,0.844952 4.6972662,2.1484384 0.0166,0.01602 0.03455,0.02399 0.05078,0.04297 h 0.002 c 0.133013,0.155735 0.323324,0.28561 0.425781,0.46875 0.02175,0.03888 0.03962,0.07981 0.06055,0.119141 0.01206,0.02266 -0.02185,-0.04534 -0.0332,-0.06836 0.05442,0.06286 0.03215,0.03937 0.04297,0.05274 0.03038,0.02922 0.05994,0.06026 0.0918,0.08789 0.01955,0.01696 -0.03529,-0.03949 -0.05273,-0.05859 0.04197,0.04489 0.08207,0.09279 0.126953,0.134765 0.01889,0.01767 -0.033,-0.0401 -0.04883,-0.06055 0.02977,0.03426 0.06008,0.0673 0.08984,0.101563 0.0013,5.56e-4 0.0026,0.0014 0.0039,0.002 -0.0183,-0.02242 -0.04366,-0.0532 -0.03125,-0.04102 0.01413,0.01387 0.02617,0.02987 0.03906,0.04492 0.03747,0.01609 0.07574,0.03097 0.113281,0.04687 0.03118,0.05603 0.06257,0.111945 0.09375,0.167969 0.0056,-1.9e-4 0.02133,0.01112 0.03125,0.01758 0.03503,0.02277 0.06922,0.04841 0.103516,0.07227 0.03361,0.02953 0.06795,0.05836 0.101562,0.08789 0.02831,0.0292 0.05356,0.06091 0.08399,0.08789 0.0031,0.0027 6e-6,-0.0096 0,-0.01367 0.01422,0.01341 0.02862,0.02774 0.04297,0.04102 0.01035,-0.01281 0.04281,0.02771 0.06445,0.04101 0.04413,0.05263 0.08869,0.105571 0.132812,0.158203 -0.0041,-0.0092 -0.01787,-0.0373 -0.01172,-0.0293 0.0127,0.01656 0.02284,0.03582 0.03516,0.05274 0.03397,0.03765 0.07224,0.07865 0.02148,0.02148 0.10542,0.04 0.146078,0.09411 0.21875,0.230469 0.0036,0.0036 0.0081,0.0062 0.01172,0.0098 0.132598,0.04824 0.166386,0.09513 0.232422,0.228515 0.0085,0.0054 0.01663,0.0091 0.02539,0.01172 0.0031,9.41e-4 0.0049,-0.0075 0.0078,-0.0059 0.09536,0.05191 0.02435,0.01361 0.04687,0.02734 -0.0064,-0.0093 -0.01208,-0.01952 -0.01758,-0.0293 -0.0078,-0.03921 -0.01677,-0.07768 -0.02344,-0.117188 -0.08311,-0.14468 -0.131596,-0.121149 -0.07422,-0.154297 -0.02684,-0.06412 -0.06108,-0.12532 -0.08789,-0.189453 -0.0074,-0.01773 -0.02621,-0.06925 -0.01367,-0.05469 0.02046,0.02377 0.0485,0.113799 0.03906,0.08399 -0.05672,-0.179533 -0.126933,-0.223617 -0.0625,-0.179688 0.03657,0.03874 0.0064,0.0088 0,-0.01172 -0.02037,-0.06517 -0.05021,-0.130911 -0.0625,-0.197266 -0.02428,-0.0278 -0.02161,-0.02307 -0.02344,-0.0332 -0.0016,-0.0087 0.01037,0.01028 0.01953,0.01758 -2.28e-4,-0.0019 1.81e-4,-0.004 0,-0.0059 -0.02976,-0.02715 -0.06056,-0.05286 -0.08594,-0.08399 -0.06137,-0.07529 -0.05141,-0.196272 -0.123047,-0.263672 -0.178844,-0.168256 -0.153989,-0.302516 -0.04883,-0.36914 -0.179997,-0.329183 -0.395434,-0.635032 -0.626969,-0.92968 -0.122895,-0.05332 -0.195925,-0.158759 -0.246094,-0.291016 C 13.613697,8.9922816 11.685984,8.0469866 9.5278658,8.0469866 Z m 5.4609382,3.9785164 c 0.004,0.0046 0.0078,0.0091 0.01172,0.01367 -0.0035,-0.0045 -0.0041,-0.0067 -0.0098,-0.01367 z m 0.01367,0.0059 c 0.01934,0.02291 0.03759,0.047 0.05859,0.06836 0.01851,0.01883 -0.02819,-0.04603 -0.04883,-0.0625 -0.0029,-0.0023 -0.0053,-0.0032 -0.0098,-0.0059 z m 0.224611,0.253866 c 0.0079,0.01426 0.0155,0.02871 0.02344,0.04297 -6.7e-4,-0.0033 6.46e-4,-0.0049 -0.002,-0.0098 -0.008,-0.01046 -0.01479,-0.02173 -0.02148,-0.0332 z m 0.822266,0.126953 c 0.0011,0.0024 -0.001,0.0054 0.002,0.0078 0.02729,0.02705 0.06095,0.05655 0.04687,0.04101 -0.01544,-0.01716 -0.0318,-0.03316 -0.04883,-0.04883 z m 0.226562,0.558594 c -0.0094,-0.03107 -0.0058,0.06616 0.002,0.09766 0.0048,0.0194 0.01646,0.03561 0.02734,0.05274 -0.0086,-0.05063 -0.01445,-0.10132 -0.0293,-0.150391 z m -0.220703,0.0918 c 0.005,0.008 0.0022,0.005 0.0078,0.01367 6.75e-4,10e-4 -2.93e-4,-0.004 0,-0.0039 -0.0023,-0.0034 -0.0056,-0.0062 -0.0078,-0.0098 z m 0.25,0.25 c 0.0068,0.0113 0.0019,0.007 0.0098,0.01953 0.0011,0.0017 -4.68e-4,-0.006 0,-0.0059 -0.0035,-0.0045 -0.0065,-0.009 -0.0098,-0.01367 z m -13.6269532,0.0059 c -0.0051,-0.0052 0.01025,0.03009 0.0078,0.0293 0.0059,1.11e-4 0.01171,-1.24e-4 0.01758,0 -0.0036,-0.0041 -0.02261,-0.02646 -0.02539,-0.0293 z M 16.1685,16.500156 c -0.0031,0.0015 -0.0047,0.0064 -0.0078,0.0078 0.0036,0.02051 0.0097,0.04743 0.01172,0.05859 0.0063,-0.0083 0.0092,0.01395 0.01172,0.01367 -4.46e-4,-0.0049 6.38e-4,-0.01084 0,-0.01563 -0.0018,-0.01375 -0.01037,-0.04076 -0.01563,-0.06445 z M 4.3481878,17.808705 c 0.01046,0.0038 0.02079,0.008 0.03125,0.01172 v -0.002 c -0.01028,-0.0036 -0.02103,-0.006 -0.03125,-0.0098 z"
     inkscape:connector-curvature="0" />
  <path
     id="path592"
     style="display:inline;fill:#000000;fill-opacity:1"
     d="m 15.465375,10.914174 -0.80664,0.457031 c 0.08686,0.127612 0.154635,0.266399 0.234375,0.398438 0.07374,0.105253 0.171008,0.189964 0.289062,0.240234 0.107932,0.04798 0.221297,0.07279 0.335938,0.09766 0.08112,0.02943 0.150447,0.07625 0.210937,0.136718 0.05786,0.06695 0.115994,0.133826 0.177735,0.197266 0.07444,0.06902 0.115221,0.150827 0.138671,0.248047 0.02984,0.10489 0.07786,0.198207 0.150391,0.279297 0.0908,0.07066 0.186877,0.133815 0.279297,0.203125 0.08492,0.06191 0.140507,0.148425 0.197265,0.234375 0.05802,0.09258 0.137997,0.164261 0.216797,0.238281 0.09485,0.06892 0.163395,0.162446 0.234375,0.253906 0.06928,0.09713 0.116428,0.20664 0.173828,0.310547 0.04443,0.08678 0.08667,0.175772 0.128907,0.263672 0.04083,0.107937 0.10282,0.199714 0.1875,0.277344 0.101262,0.07658 0.202199,0.156266 0.310547,0.222656 0.09724,0.05968 0.205427,0.09472 0.304687,0.150391 0.07952,0.05754 0.143088,0.13733 0.205078,0.21289 0.0298,0.04846 0.01524,0.02316 0.03711,0.07617 l 0.726562,-0.408203 c -0.0079,-0.0083 -0.01508,-0.01736 -0.02344,-0.02344 -0.0048,-0.0035 -0.0083,-0.006 -0.01563,-0.0098 -0.01607,-0.0032 0.0052,0.0026 -0.02539,-0.0039 -0.05386,-0.02989 -0.09625,-0.05007 -0.142578,-0.101563 -0.01535,-0.01706 -0.0189,-0.04289 -0.02734,-0.06641 -0.0362,-0.01222 -0.07203,-0.01976 -0.103516,-0.05664 -0.0019,-0.0022 -0.0039,-0.0016 -0.0059,-0.0039 -0.0074,-0.0057 -0.01496,-0.01096 -0.02148,-0.01758 -0.01475,-0.01498 -0.02612,-0.03421 -0.03906,-0.05078 0.0034,9.68e-4 0.01188,0.0067 0.0098,0.0039 -0.0218,-0.02896 -0.05452,-0.04953 -0.08203,-0.07227 -0.01021,-0.0098 -0.01837,-0.01945 -0.03125,-0.0293 0,0 -0.002,-0.002 -0.002,-0.002 -0.0059,-0.0051 -0.01881,-0.0109 -0.01563,-0.01563 -0.0012,5.99e-4 -0.0028,-0.0029 -0.0039,-0.002 -0.01982,-0.0144 -0.02386,-0.02876 -0.03125,-0.0332 -9.04e-4,0.02922 -0.06643,-0.05015 -0.07617,-0.06055 -0.07469,-0.07972 -0.08316,-0.08014 -0.09961,-0.148437 8.31e-4,8.14e-4 -0.0051,-0.01003 -0.0078,-0.01367 -0.0176,-0.01331 -0.03694,-0.0242 -0.05469,-0.03711 -0.01984,-0.01565 -0.02452,-0.04239 -0.04102,-0.06055 -0.0044,-0.0041 -0.0092,-0.0076 -0.01367,-0.01172 -6.04e-4,-0.0032 -0.0013,-0.0065 -0.002,-0.0098 -0.0414,-0.05103 -0.0872,-0.09897 -0.111328,-0.162109 -0.01067,-0.02364 -0.02204,-0.04692 -0.0332,-0.07031 -0.0087,-0.0076 -0.01642,-0.0166 -0.02734,-0.02148 -0.210379,-0.179646 -0.0317,-0.02499 -0.03711,-0.03125 -0.01389,-0.0161 -0.02957,-0.03212 -0.04492,-0.04687 -0.0144,-0.01636 -0.03493,-0.0275 -0.04492,-0.04687 -0.0057,-0.01113 0.02093,0.01438 0.03125,0.02148 -0.0463,-0.02933 -0.08164,-0.06414 -0.115234,-0.09961 -0.0064,-0.0014 -0.01328,-0.0018 -0.01953,-0.0039 -0.02216,-0.0075 -0.03939,-0.02375 -0.05859,-0.03711 -0.0024,-0.0017 0.01014,0.0039 0.0078,0.002 -0.04481,-0.03588 -0.08636,-0.0591 -0.115234,-0.109375 0.0087,0.0052 0.03256,0.0228 0.02539,0.01563 -0.08218,-0.08246 -0.08703,-0.0787 -0.109375,-0.138672 0,0 -0.002,-0.002 -0.002,-0.002 0,0 -0.002,-0.002 -0.002,-0.002 -0.0024,-0.0022 -0.0055,-0.0036 -0.0078,-0.0059 -0.0105,-0.0077 -0.02073,-0.01576 -0.03125,-0.02344 0.0028,7.71e-4 0.01177,0.0041 0.0098,0.002 -0.02506,-0.02663 -0.05838,-0.04539 -0.07813,-0.07617 -0.01462,-0.0228 -0.0167,-0.05167 -0.02344,-0.07813 -0.03598,-0.01054 -0.0428,-0.01325 -0.101563,-0.119141 -0.009,-0.01808 -0.01789,-0.03597 -0.02539,-0.05469 -0.0025,-0.0063 0.0068,0.01095 0.01172,0.01562 0.0013,0.0012 0.0069,0.0014 0.0059,0 -0.01348,-0.01802 -0.03033,-0.03365 -0.04492,-0.05078 -0.0078,-0.01463 -0.01944,-0.02884 -0.02344,-0.04492 -0.0033,-0.01354 -0.004,-0.02717 -0.0059,-0.04101 -0.0048,0.0018 -0.0077,0.0064 -0.03125,-0.02539 -0.006,-0.0081 0.02622,0.0058 0.0293,0.0059 -0.02027,-0.0125 -0.06421,-0.04301 -0.101562,-0.07617 -0.0081,-0.0071 -0.01687,-0.01448 -0.02539,-0.02149 0,0 -0.002,-0.002 -0.002,-0.002 -0.05537,-0.04546 -0.113485,-0.0913 -0.115234,-0.175781 -1.88e-4,-0.0086 0.0031,-0.02482 0.0039,-0.03711 -0.0046,-0.01686 -0.01538,-0.01443 -0.02539,-0.06055 -4.48e-4,-0.002 0.0015,-0.0039 0.002,-0.0059 -0.03773,-0.02934 -0.07478,-0.05973 -0.117187,-0.08203 -0.01411,-0.01519 -0.01826,-0.03587 -0.0293,-0.05273 -0.03056,-0.02206 -0.06107,-0.04419 -0.08789,-0.07031 -0.01014,-0.0042 -0.02105,-0.0078 -0.03125,-0.01172 0.07914,0.0214 -0.02089,-0.0016 -0.107422,-0.0957 -0.0049,-0.0053 -9.49e-4,-0.01188 -0.0059,-0.02148 -0.03052,-0.0126 -0.0636,-0.02151 -0.08594,-0.04492 -0.02449,-0.02566 -0.02427,-0.06605 -0.03125,-0.101562 -0.06508,-0.02477 -0.110652,-0.03898 -0.134765,-0.138672 9.22e-4,-0.0045 -5.97e-4,-0.01388 0,-0.01953 -0.01141,-0.0073 -0.02199,-0.01588 -0.0332,-0.02344 -0.03648,-0.05273 -0.02597,-0.0426 -0.04883,-0.130859 -0.03383,-0.0091 -0.06124,-0.03589 -0.08984,-0.06055 -0.0012,-3.03e-4 -0.0027,3.5e-4 -0.0039,0 -0.144113,-0.03997 -0.228977,-0.117172 -0.332032,-0.218751 -0.0062,-0.0029 -0.0134,-0.0026 -0.01953,-0.0059 -0.106644,-0.02639 -0.188979,-0.09974 -0.255859,-0.185547 -0.07902,-0.129561 -0.151573,-0.260687 -0.226563,-0.392578 z m 0.9375,0.867188 c 8.63e-4,0.0018 7.99e-4,0.0042 0.002,0.0059 0.0051,0.0073 0.02249,0.02692 0.01758,0.01953 -0.006,-0.009 -0.01296,-0.01681 -0.01953,-0.02539 z m 0.09961,0.167968 c -5.36e-4,0.0013 -0.0014,0.0026 -0.002,0.0039 0,0 0.002,0.002 0.002,0.002 0.0092,0.0091 0.04534,0.02564 0.03516,0.01758 -0.01102,-0.0087 -0.02346,-0.01563 -0.03516,-0.02344 z m 0.126953,0.154297 c 0.0096,0.01083 0.02317,0.02657 0.01758,0.01953 -0.0052,-0.0066 -0.0101,-0.01322 -0.01563,-0.01953 0,0 -0.002,0 -0.002,0 z m 0.01563,0 c 0.0015,0.0011 0.0025,0.0027 0.0039,0.0039 7.78e-4,1.85e-4 0.0051,5.67e-4 0.0039,0 -0.0034,-0.0016 -0.0046,-0.0024 -0.0078,-0.0039 z m 0.105469,0.146485 c 0.0024,0.0038 0.0045,0.0072 0.0078,0.0098 0.0084,0.0067 0.02046,0.0076 0.03125,0.0098 -0.01287,-0.0068 -0.0253,-0.01389 -0.03906,-0.01953 z m 0.826171,1.023437 c 0.0069,0.0053 0.01192,0.0131 0.02148,0.01563 0.0091,0.0024 0.02273,0.0056 0.02734,0.0059 -2.8e-4,-4.93e-4 2.82e-4,-0.0015 0,-0.002 -0.02523,-0.0122 -0.03337,-0.01428 -0.04883,-0.01953 z"
     inkscape:connector-curvature="0" />
  <path
     id="path49-3"
     style="color:#000000;font-style:normal;font-variant:normal;font-weight:normal;font-stretch:normal;font-size:medium;line-height:normal;font-family:sans-serif;font-variant-ligatures:normal;font-variant-position:normal;font-variant-caps:normal;font-variant-numeric:normal;font-variant-alternates:normal;font-feature-settings:normal;text-indent:0;text-align:start;text-decoration:none;text-decoration-line:none;text-decoration-style:solid;text-decoration-color:#000000;letter-spacing:normal;word-spacing:normal;text-transform:none;writing-mode:lr-tb;direction:ltr;text-orientation:mixed;dominant-baseline:auto;baseline-shift:baseline;text-anchor:start;white-space:normal;shape-padding:0;clip-rule:nonzero;display:inline;overflow:visible;visibility:visible;opacity:1;isolation:auto;mix-blend-mode:normal;color-interpolation:sRGB;color-interpolation-filters:linearRGB;solid-color:#000000;solid-opacity:1;vector-effect:none;fill:#000000;fill-opacity:1;fill-rule:nonzero;stroke:none;stroke-width:1;stroke-linecap:butt;stroke-linejoin:miter;stroke-miterlimit:4;stroke-dasharray:none;stroke-dashoffset:0;stroke-opacity:1;color-rendering:auto;image-rendering:auto;shape-rendering:auto;text-rendering:auto;enable-background:accumulate"
     d="m 19.805219,6.9141736 c 0.01798,0.0172 0.03782,0.03401 0.05859,0.05273 0.0014,-0.0012 0.0025,-0.0027 0.0039,-0.0039 -0.03166,-0.02779 -0.04382,-0.03689 -0.05859,-0.04883 -0.0013,-4.7e-5 -0.0026,4.7e-5 -0.0039,0 z m -1.648437,2.490234 c 0.0026,0.0034 0.0071,0.01594 0.0098,0.01953 0.002,-0.0061 0.0058,-0.01149 0.0078,-0.01758 -0.0061,-0.0015 -0.01137,8.41e-4 -0.01758,-0.002 z M 17.17436,12.785268 c 0.0047,0.01294 0.01126,0.02585 0.01367,0.03906 0.02256,0.01453 0.02982,0.0114 0.04687,0.01953 -0.02169,-0.0178 -0.04224,-0.03794 -0.06055,-0.05859 z m 12.527343,0.115234 c -0.0256,0.07662 -0.05511,0.151385 -0.08398,0.226563 0.0052,-0.0065 0.0082,-0.01487 0.01367,-0.02149 -1.02e-4,0.0018 0.02736,-0.04925 0.03906,-0.07031 0.0063,-0.02606 0.02294,-0.05906 0.03906,-0.08203 -0.02794,0.04345 -0.01038,0.05072 -0.0332,0.04101 0.04365,-0.192237 0.02354,-0.0926 0.02539,-0.09375 z m -12.486328,0.03516 c 4.67e-4,0.0032 9e-5,0.0065 0,0.0098 0.04055,0.08318 0.08297,0.170124 0.07617,0.263672 0.0023,0.06912 -0.0068,0.137926 -0.0098,0.207031 0.03496,0.09538 0.08773,0.182021 0.126953,0.275391 0.002,-0.03724 0.01,-0.07436 0.0059,-0.111328 -0.0073,-0.06024 -0.02633,-0.118811 -0.04102,-0.177734 -0.0159,-0.03087 -0.03388,-0.06045 -0.04883,-0.0918 -0.0094,-0.01973 0.01821,0.02299 0.03906,0.05273 -0.01695,-0.06461 -0.02917,-0.130483 -0.04492,-0.195313 -0.02864,-0.05329 -0.05676,-0.116403 -0.07227,-0.144531 -0.02291,-0.04156 0.0458,0.08325 0.06836,0.125 0.0015,0.0064 0.0023,0.01309 0.0039,0.01953 0.06905,0.128471 0.155844,0.283066 0.175781,0.347657 0.01867,0.06047 0.02745,0.123289 0.03906,0.185547 0.0055,0.01028 0.01014,0.02094 0.01563,0.03125 0.0062,0.03564 0.0064,0.04838 0.01758,0.107422 0.0014,0.0077 0.0025,0.0061 0.0039,0.01367 0.01787,0.09498 0.04386,0.23318 0.0293,0.175782 -0.01686,-0.06642 -0.02948,-0.133475 -0.04102,-0.201172 -0.0178,-0.04247 -0.03653,-0.08464 -0.05469,-0.126953 0.01525,0.02785 0.03352,0.05439 0.04492,0.08398 -0.0048,-0.02816 -0.01037,-0.05594 -0.01563,-0.08398 -0.04167,-0.07767 -0.0835,-0.154659 -0.125,-0.232422 0.06863,0.218232 0.129232,0.438734 0.199218,0.65625 0.01581,0.03113 0.02668,0.06484 0.04297,0.0957 -0.001,-0.04615 -0.0015,-0.100841 -0.01172,-0.150391 -0.01412,-0.06805 -0.03934,-0.133539 -0.0625,-0.199218 0.02526,0.06019 0.05156,0.120078 0.07813,0.179687 -0.01132,-0.03066 -0.0049,-0.02593 -0.02344,-0.07422 -0.01582,-0.04111 0.06332,0.16502 0.04492,0.125 -0.0077,-0.01669 -0.01398,-0.03401 -0.02148,-0.05078 0.01994,0.05402 0.03524,0.102257 0.04102,0.130859 0.0144,-0.162602 0.03378,0.0056 0.05078,0.226563 0.03791,0.06663 0.08682,0.126158 0.126953,0.191406 0.158295,0.101484 0.279723,0.315045 0.382813,0.482422 0.04158,0.06751 0.06694,0.131298 0.08203,0.189453 0.11506,0.144715 0.242698,0.278776 0.369141,0.414063 0.01857,0.01592 0.03439,0.02984 0.04687,0.05078 1.289267,1.352327 3.129766,2.208983 5.18164,2.208983 2.119784,0 4.013922,-0.911463 5.306641,-2.341796 -0.0632,8.74e-4 -0.126274,-3.96e-4 -0.1875,-0.0332 -0.0069,-0.0032 0.0013,-0.0012 -0.0039,-0.0039 h -0.01365 -0.185547 -0.21875 -0.21875 -0.203125 -0.34375 c -0.02253,0 -0.03154,-0.0106 -0.05078,-0.01367 -1.048063,0.853039 -2.384435,1.392577 -3.88086,1.392577 -1.619163,0 -3.066903,-0.612201 -4.144531,-1.591796 l -0.08594,0.0039 c -0.04434,-0.03486 -0.09894,-0.05995 -0.134766,-0.103516 -0.0017,-0.0021 -1.56e-4,-0.0053 -0.002,-0.0078 -0.04763,-0.01325 -0.08223,-0.01835 -0.134766,-0.06641 -0.01274,-0.01165 -0.03744,-0.02412 -0.04102,-0.03125 -0.0089,-0.0024 -0.03931,-0.0063 -0.0332,-0.0078 0.009,-0.0022 0.01501,5.69e-4 0.02734,0.0039 7.68e-4,-4.2e-4 -0.0057,-0.0038 -0.0039,-0.0039 0.0048,-2.85e-4 0.009,0.0029 0.01367,0.0039 0.0024,5.53e-4 0.01531,0.0037 0.01172,0.002 -0.136069,-0.06571 -0.118395,-0.0068 -0.179688,-0.101562 -0.0014,-0.0021 0.0053,-1.02e-4 0.0078,0 -0.01901,-0.01968 -0.03985,-0.048 -0.0625,-0.06445 -0.0048,-0.0035 -0.0083,-0.006 -0.01563,-0.0098 -0.01607,-0.0032 0.0052,0.0026 -0.02539,-0.0039 -0.05386,-0.02989 -0.09625,-0.05007 -0.142578,-0.101563 -0.01535,-0.01706 -0.0189,-0.04289 -0.02734,-0.06641 -0.0362,-0.01222 -0.07203,-0.01976 -0.103516,-0.05664 -0.0019,-0.0022 -0.0039,-0.0016 -0.0059,-0.0039 -0.0074,-0.0057 -0.01496,-0.01096 -0.02148,-0.01758 -0.01475,-0.01498 -0.02612,-0.03421 -0.03906,-0.05078 0.0034,9.68e-4 0.01188,0.0067 0.0098,0.0039 -0.0218,-0.02896 -0.05452,-0.04953 -0.08203,-0.07227 -0.01021,-0.0098 -0.01837,-0.01945 -0.03125,-0.0293 0,0 -0.002,-0.002 -0.002,-0.002 -0.0059,-0.0051 -0.01881,-0.0109 -0.01563,-0.01563 -0.0012,5.99e-4 -0.0028,-0.0029 -0.0039,-0.002 -0.01982,-0.0144 -0.02386,-0.02876 -0.03125,-0.0332 -9.04e-4,0.02922 -0.06643,-0.05015 -0.07617,-0.06055 -0.07469,-0.07972 -0.08316,-0.08014 -0.09961,-0.148437 0.0022,0.0021 -0.01174,-0.01294 -0.02148,-0.03516 -0.03254,-0.02942 -0.06358,-0.05801 -0.0957,-0.08789 -0.0071,-0.03794 -0.01744,-0.07684 -0.02148,-0.115235 -6.44e-4,-0.006 6.98e-4,-0.01163 0.002,-0.01758 l -0.0078,-0.0059 c -0.003,-0.0047 -0.0035,-0.01006 -0.0078,-0.01367 -0.02118,-0.01801 -0.04491,-0.03315 -0.06641,-0.05078 -0.02425,-0.01988 -0.04263,-0.04729 -0.07227,-0.06055 -0.210379,-0.179646 -0.0317,-0.02499 -0.03711,-0.03125 -0.01389,-0.0161 -0.02957,-0.03212 -0.04492,-0.04687 -0.0144,-0.01636 -0.03493,-0.0275 -0.04492,-0.04687 -0.0057,-0.01113 0.02093,0.01438 0.03125,0.02148 -0.0463,-0.02933 -0.08164,-0.06414 -0.115234,-0.09961 -0.0064,-0.0014 -0.01328,-0.0018 -0.01953,-0.0039 -0.02216,-0.0075 -0.03939,-0.02375 -0.05859,-0.03711 -0.0024,-0.0017 0.01014,0.0039 0.0078,0.002 -0.04481,-0.03588 -0.08636,-0.0591 -0.115234,-0.109375 0.0087,0.0052 0.03256,0.0228 0.02539,0.01563 -0.08218,-0.08246 -0.08703,-0.0787 -0.109375,-0.138672 0,0 -0.002,-0.002 -0.002,-0.002 0,0 -0.002,-0.002 -0.002,-0.002 -0.0024,-0.0022 -0.0055,-0.0036 -0.0078,-0.0059 -0.0105,-0.0077 -0.02073,-0.01576 -0.03125,-0.02344 0.0028,7.71e-4 0.01177,0.0041 0.0098,0.002 -0.02506,-0.02663 -0.05838,-0.04539 -0.07813,-0.07617 -0.01274,-0.01987 -0.01445,-0.04488 -0.01953,-0.06836 -0.0064,-0.0092 -0.01344,-0.01795 -0.01953,-0.02734 -0.02469,-0.0091 -0.036,-0.01158 -0.08594,-0.101563 -0.009,-0.01808 -0.01789,-0.03597 -0.02539,-0.05469 -0.0029,-0.0043 -0.0049,-0.0093 -0.0078,-0.01367 -0.0066,-0.0071 -0.01328,-0.01415 -0.01953,-0.02149 -0.0027,-0.005 -0.0047,-0.01059 -0.0078,-0.01563 -0.01719,-0.02569 -0.03513,-0.05061 -0.05469,-0.07422 -0.0097,-0.01173 0.0056,0.03196 0.01367,0.04492 0.014,0.02265 0.03723,0.03762 0.05078,0.06055 0.0055,0.0093 -0.01659,-0.0114 -0.02539,-0.01758 0.0087,0.0079 0.03534,0.02966 0.02539,0.02344 -0.07596,-0.04747 -0.100878,-0.07285 -0.138672,-0.103516 0.0071,0.0136 0.0067,0.0091 0.01563,0.0293 -0.01335,-0.01527 -0.02592,-0.03134 -0.03906,-0.04687 -0.0062,-0.0054 -0.01991,-0.01435 -0.02539,-0.01953 z m 0.480469,1.246093 c -0.0033,0.03678 -0.0086,0.01735 -0.0098,0.107422 -0.0116,-0.02333 0.01208,0.03195 0.01758,0.04687 0.0093,0.01686 0.01789,0.03401 0.02734,0.05078 -0.0091,-0.07138 -0.02874,-0.173322 -0.03516,-0.205078 z m 0.757812,0.107422 c 0.0055,0.0064 0.0076,0.0065 0.01172,0.0098 0.001,8.24e-4 0.0029,-0.003 0.002,-0.0039 -0.0035,-0.003 -0.0093,-0.0036 -0.01367,-0.0059 z m 11.261719,0.625 c 0.01285,0.01751 0.01028,0.05085 0.01563,0.07617 0.01335,-0.01868 0.0259,-0.03783 0.03906,-0.05664 -0.0123,-0.0052 -0.02491,3.04e-4 -0.03711,-0.0078 -0.0061,-0.0043 -0.0079,-0.0075 -0.01367,-0.01172 -0.0013,-4.9e-5 -0.0026,3.5e-5 -0.0039,0 z"
     inkscape:connector-curvature="0" />
  <path
     id="path394"
     style="display:inline;fill:#000000;fill-opacity:1"
     d="m 14.725141,10.347768 -0.263672,0.164062 c 0.07465,0.04841 0.145297,0.100211 0.210937,0.160156 0.03843,0.04169 0.07674,0.08199 0.121094,0.117188 0.03684,0.02491 0.06501,0.05795 0.09766,0.08789 0.03507,0.03228 0.08241,0.04498 0.123047,0.06836 0.02803,0.03323 0.05499,0.06843 0.08399,0.101562 0.0348,0.04812 0.07596,0.08624 0.125,0.119141 0.04082,0.02236 0.07073,0.05752 0.105468,0.08789 0.03731,0.03505 0.08819,0.04378 0.134766,0.06055 0.04777,0.0093 0.07218,0.03729 0.09766,0.07617 0.02466,0.04992 0.05717,0.08641 0.101563,0.119141 0.03911,0.02832 0.05951,0.07 0.08789,0.107422 0.03107,0.03829 0.06095,0.07777 0.08789,0.119141 0.01508,0.04968 0.04443,0.08481 0.07813,0.123047 0.03563,0.03592 0.06918,0.07227 0.107422,0.105469 0.04988,0.0381 0.09597,0.08091 0.140625,0.125 0.05394,0.04704 0.106221,0.09935 0.144531,0.160156 l 0.267578,-0.15625 c -0.0089,-0.01398 -0.02309,-0.02389 -0.0332,-0.03711 -0.01103,-0.0072 -0.02035,-0.02204 -0.0293,-0.0332 -0.02838,-0.03249 -0.05392,-0.06752 -0.08594,-0.0957 -0.04467,-0.04498 -0.08995,-0.08886 -0.140625,-0.126953 -0.03728,-0.03228 -0.07046,-0.06693 -0.105469,-0.101563 -0.03241,-0.03776 -0.06136,-0.07213 -0.07617,-0.121094 -0.02731,-0.04215 -0.0562,-0.08032 -0.08789,-0.119141 -0.0306,-0.03911 -0.05274,-0.08473 -0.09375,-0.115234 -0.04578,-0.03428 -0.0702,-0.05528 -0.0957,-0.109375 -0.02725,-0.04229 -0.05651,-0.08431 -0.109374,-0.09375 -0.04319,-0.01538 -0.09002,-0.02251 -0.126954,-0.05078 -0.03484,-0.03196 -0.06837,-0.06808 -0.109375,-0.0918 -0.04808,-0.03302 -0.08633,-0.06085 -0.11914,-0.111328 -0.03067,-0.03584 -0.06143,-0.07211 -0.08984,-0.109375 -0.0379,-0.0257 -0.08241,-0.0355 -0.119141,-0.0625 -0.03248,-0.03105 -0.06108,-0.0658 -0.09766,-0.0918 -0.04337,-0.03557 -0.08606,-0.07043 -0.123047,-0.113281 -0.06657,-0.05923 -0.134044,-0.113713 -0.209004,-0.162116 z"
     inkscape:connector-curvature="0" />
  <path
     id="path453"
     style="display:inline;fill:#ff0000;fill-opacity:1;fill-rule:nonzero;stroke:none"
     d="m 16.750532,10.617299 c 0.0021,0.0021 0.0019,0.0038 0.0039,0.0059 3.81e-4,-0.0016 -4.05e-4,-0.0043 0,-0.0059 -0.0014,-1.33e-4 -0.0025,9.5e-5 -0.0039,0 z"
     inkscape:connector-curvature="0" />
  <path
     id="path458"
     style="display:inline;fill:#ff0000;fill-opacity:1;fill-rule:nonzero;stroke:none"
     d="m 16.750532,10.617299 c 0.0021,0.0021 0.0019,0.0038 0.0039,0.0059 3.81e-4,-0.0016 -4.05e-4,-0.0043 0,-0.0059 -0.0014,-1.33e-4 -0.0025,9.5e-5 -0.0039,0 z"
     inkscape:connector-curvature="0" />
  <path
     style="display:inline;fill:#000000;fill-opacity:1"
     id="path680"
     d="m 16.286981,12.690658 c 0.07071,0.04853 0.140317,0.09747 0.201533,0.157929 0.01602,0.02199 0.03231,0.043 0.05292,0.06072 0,0 -0.264176,0.162883 -0.264176,0.162883 v 0 c -0.01891,-0.01939 -0.03589,-0.04018 -0.05201,-0.06198 -0.06097,-0.05971 -0.130016,-0.108009 -0.200681,-0.15546 0,0 0.262417,-0.1641 0.262417,-0.1641 z"
     inkscape:connector-curvature="0" />
  <path
     style="display:inline;fill:#000000;fill-opacity:1"
     id="path684"
     d="m 16.410167,12.795344 c 0.05229,0.07318 0.12714,0.124353 0.193912,0.182944 0.04532,0.033 0.09552,0.05794 0.143909,0.08659 0.04292,0.03254 0.08901,0.05601 0.125621,0.09634 0.03017,0.04031 0.07349,0.0666 0.105712,0.104539 0.03396,0.03139 0.0518,0.07488 0.08012,0.110749 0.03659,0.02905 0.07162,0.05853 0.100141,0.09583 0.0332,0.03992 0.0618,0.08352 0.09155,0.126186 0.02175,0.0326 0.04411,0.06468 0.06588,0.09728 0,0 -0.267123,0.156531 -0.267123,0.156531 v 0 c -0.02158,-0.03241 -0.04346,-0.06457 -0.06558,-0.09658 -0.02979,-0.04205 -0.05786,-0.08527 -0.09086,-0.124764 -0.0293,-0.03658 -0.0671,-0.0633 -0.100576,-0.09582 -0.02711,-0.03598 -0.0461,-0.07778 -0.07905,-0.109149 -0.03294,-0.03642 -0.07476,-0.06426 -0.104844,-0.103789 -0.03552,-0.03645 -0.08093,-0.05831 -0.121038,-0.08916 -0.04913,-0.03012 -0.102562,-0.05344 -0.146077,-0.09176 -0.06843,-0.06026 -0.142298,-0.115601 -0.197958,-0.188782 0,0 0.266266,-0.15718 0.266266,-0.15718 z"
     inkscape:connector-curvature="0" />
  <path
     style="display:inline;fill:#000000;fill-opacity:1"
     id="path686"
     d="m 16.443231,12.878158 c 0.06189,0.06564 0.130837,0.123957 0.194712,0.187507 0.04723,0.04933 0.100763,0.09107 0.152844,0.134899 0.04305,0.03554 0.04833,0.09484 0.09223,0.128578 0.03617,0.03075 0.06164,0.07348 0.08132,0.116308 0.03008,0.04429 0.05621,0.0905 0.07917,0.138943 0.01902,0.04948 0.06067,0.07931 0.09231,0.119093 0.02286,0.04144 0.0559,0.0742 0.08184,0.113819 0.03582,0.04932 0.07648,0.09474 0.115735,0.141398 0.04275,0.0362 0.08973,0.06088 0.12218,0.107715 0.02666,0.04907 0.05103,0.06405 0.09482,0.09311 0.04346,0.03026 0.08376,0.06486 0.129032,0.09256 0.04954,0.0266 0.09848,0.05582 0.145764,0.08645 0.04644,0.03367 0.07997,0.083 0.105182,0.133956 0.0137,0.04743 0.02574,0.09121 0.05988,0.128145 0.04556,0.0351 0.0912,0.06987 0.135811,0.106539 0.03308,0.02538 0.05125,0.06464 0.08313,0.09089 0.01533,0.01262 0.03234,0.02306 0.04806,0.03521 0.04377,0.03571 0.09231,0.06805 0.144251,0.0907 0.0461,0.02141 0.08004,0.05402 0.110404,0.09404 0.0223,0.04347 0.05039,0.08244 0.08028,0.120764 0.03336,0.03249 0.06107,0.07111 0.101198,0.09561 0.0422,0.02609 0.07696,0.06218 0.1192,0.08795 0,0 -0.260734,0.167377 -0.260734,0.167377 v 0 c -0.04089,-0.02807 -0.07776,-0.06153 -0.119722,-0.08824 -0.04024,-0.02939 -0.07209,-0.06782 -0.106056,-0.10401 -0.0301,-0.03825 -0.05816,-0.07745 -0.08072,-0.120771 -0.02821,-0.03587 -0.0599,-0.06346 -0.102262,-0.08189 -0.05236,-0.02663 -0.102355,-0.05892 -0.147554,-0.09646 -0.04941,-0.03794 -0.08987,-0.08123 -0.13169,-0.127139 -0.04549,-0.03822 -0.09505,-0.07057 -0.139134,-0.110168 -0.03396,-0.0402 -0.05234,-0.08433 -0.06372,-0.13547 -0.02233,-0.04627 -0.05272,-0.09074 -0.09616,-0.119305 -0.04837,-0.0293 -0.09579,-0.06012 -0.145746,-0.08665 -0.04445,-0.02917 -0.08557,-0.06286 -0.12969,-0.0925 -0.04315,-0.02731 -0.07538,-0.05847 -0.100801,-0.103394 -0.03202,-0.04492 -0.08362,-0.0654 -0.120665,-0.105747 -0.03924,-0.04814 -0.08128,-0.09371 -0.117693,-0.144039 -0.02574,-0.03828 -0.05838,-0.07059 -0.08049,-0.111195 -0.03388,-0.04094 -0.07522,-0.07457 -0.09544,-0.125825 -0.02302,-0.04868 -0.05028,-0.09431 -0.08002,-0.139044 -0.01751,-0.03917 -0.04109,-0.07729 -0.07449,-0.104723 -0.04028,-0.03776 -0.05196,-0.09033 -0.09119,-0.128678 -0.05305,-0.04398 -0.105853,-0.08782 -0.153829,-0.137506 -0.06307,-0.06317 -0.12931,-0.123184 -0.193977,-0.184699 0,0 0.262417,-0.1641 0.262417,-0.1641 z"
     inkscape:connector-curvature="0" />
  <path
     style="display:inline;fill:#000000;fill-opacity:1"
     id="path688"
     d="m 16.286981,12.753158 c 0.0703,0.04845 0.126788,0.112771 0.187876,0.171578 0.04488,0.02987 0.08179,0.06608 0.117426,0.105799 0.03668,0.02571 0.05927,0.06518 0.08932,0.09747 0.02802,0.03429 0.04418,0.07691 0.07973,0.104463 0.03929,0.03129 0.05403,0.07952 0.07321,0.123957 0.01533,0.0308 0.0077,0.01487 0.0229,0.04784 0,0 -0.269576,0.152423 -0.269576,0.152423 v 0 c -0.01511,-0.03255 -0.0072,-0.01641 -0.02365,-0.04841 -0.01728,-0.04037 -0.02977,-0.08396 -0.06612,-0.111662 -0.03389,-0.03121 -0.05425,-0.07151 -0.08183,-0.107848 -0.02925,-0.03319 -0.05399,-0.07047 -0.08941,-0.09779 -0.03455,-0.0395 -0.07377,-0.07229 -0.115261,-0.104607 -0.05939,-0.05956 -0.116075,-0.122686 -0.18703,-0.169119 0,0 0.262417,-0.1641 0.262417,-0.1641 z"
     inkscape:connector-curvature="0" />
  <path
     style="display:inline;fill:#000000;fill-opacity:1"
     id="path690"
     d="m 16.286981,12.784408 c 0.0699,0.0505 0.144863,0.09094 0.214111,0.142554 0.04807,0.03386 0.07564,0.07764 0.10299,0.127842 0.028,0.04324 0.0554,0.0876 0.09107,0.12503 0.03643,0.0365 0.06887,0.07559 0.09801,0.118206 0.03338,0.03471 0.07445,0.06104 0.109215,0.09478 0.0254,0.04163 0.06471,0.0652 0.106056,0.08838 0.04895,0.01471 0.07577,0.05563 0.101543,0.09664 0.01693,0.02131 0.0075,0.01189 0.02797,0.02848 0,0 -0.263541,0.163671 -0.263541,0.163671 v 0 c -0.02376,-0.02257 -0.01299,-0.01053 -0.03242,-0.03599 -0.02449,-0.03851 -0.04907,-0.06855 -0.09376,-0.08412 -0.04197,-0.02577 -0.08246,-0.05195 -0.109631,-0.09444 -0.03703,-0.03418 -0.0807,-0.06121 -0.112731,-0.100279 -0.02846,-0.04123 -0.06015,-0.07893 -0.09535,-0.114555 -0.0364,-0.0403 -0.0663,-0.08575 -0.09536,-0.131498 -0.02504,-0.04635 -0.05037,-0.08614 -0.09516,-0.117104 -0.06903,-0.05263 -0.145584,-0.09204 -0.215431,-0.143507 0,0 0.262417,-0.1641 0.262417,-0.1641 z"
     inkscape:connector-curvature="0" />
  <path
     style="display:inline;fill:#000000;fill-opacity:1"
     id="path692"
     d="m 16.976717,12.590905 c 0.07111,0.04941 0.135569,0.110692 0.185478,0.181599 0.03369,0.04041 0.06907,0.07882 0.09972,0.121834 0.02887,0.03333 0.07287,0.04584 0.108091,0.07148 0.03351,0.03397 0.06815,0.06254 0.09627,0.101551 0.0263,0.05402 0.06723,0.09463 0.109969,0.135284 0.0363,0.03707 0.08429,0.0588 0.119932,0.09597 0.03267,0.0384 0.04809,0.08418 0.06702,0.129712 0.01729,0.04368 0.03363,0.08813 0.05555,0.129775 0.03017,0.02878 0.06672,0.05222 0.101662,0.0755 0.04329,0.01916 0.07717,0.05501 0.101503,0.09492 0.01912,0.04645 0.02872,0.09594 0.05757,0.137829 0.02773,0.03948 0.0663,0.06926 0.100747,0.103074 0.03903,0.03714 0.07486,0.07591 0.09781,0.125003 0.01701,0.04999 0.05908,0.08038 0.09495,0.116049 0.03468,0.03031 0.07749,0.04792 0.116045,0.07205 0.04532,0.01742 0.08107,0.04447 0.113007,0.08078 0.03516,0.03379 0.05878,0.07725 0.0871,0.116786 0.03459,0.03415 0.05605,0.07826 0.08708,0.115239 0.04206,0.02724 0.06433,0.07216 0.09267,0.111551 0.0055,0.0053 0.01052,0.01126 0.01657,0.01596 0.03776,0.02936 4.22e-4,-0.0072 0.03915,0.02663 0.01906,0.01664 0.03139,0.03817 0.04648,0.05814 0.04088,0.03065 0.06903,0.07279 0.102757,0.1104 0.03662,0.03994 0.04396,0.09594 0.08785,0.129112 0.03328,0.03138 0.07364,0.05236 0.110837,0.07805 0.04059,0.03188 0.06315,0.07605 0.08994,0.118807 0.01702,0.02022 0.03269,0.04101 0.05139,0.05969 0,0 -0.264906,0.161312 -0.264906,0.161312 v 0 c -0.01886,-0.02101 -0.03625,-0.04308 -0.05388,-0.06513 -0.02491,-0.03881 -0.04521,-0.07959 -0.08369,-0.107312 -0.03929,-0.02469 -0.0779,-0.05021 -0.112669,-0.0812 -0.04147,-0.03808 -0.05528,-0.08967 -0.0898,-0.132976 -0.03428,-0.03834 -0.06461,-0.07952 -0.104538,-0.112482 -0.03056,-0.04111 -0.06393,-0.06802 -0.102303,-0.101545 -0.02779,-0.03938 -0.05197,-0.08072 -0.09192,-0.10963 -0.03045,-0.03821 -0.05373,-0.08163 -0.08776,-0.117038 -0.02783,-0.03853 -0.05117,-0.0806 -0.08566,-0.113571 -0.03106,-0.03306 -0.0668,-0.05436 -0.108008,-0.07296 -0.04174,-0.02325 -0.08433,-0.046 -0.119905,-0.07843 -0.03899,-0.03769 -0.08126,-0.0733 -0.100552,-0.125854 -0.02069,-0.04597 -0.05653,-0.08072 -0.09246,-0.115383 -0.03516,-0.03573 -0.07649,-0.06556 -0.103524,-0.108317 -0.02848,-0.04275 -0.04262,-0.09052 -0.05857,-0.138834 -0.0229,-0.03703 -0.05598,-0.06431 -0.09477,-0.08382 -0.03816,-0.02697 -0.08068,-0.05088 -0.109379,-0.08839 -0.02233,-0.04242 -0.03946,-0.08751 -0.0568,-0.132134 -0.01772,-0.04164 -0.02997,-0.08452 -0.06101,-0.119316 -0.03682,-0.03491 -0.08378,-0.05826 -0.118898,-0.0957 -0.04392,-0.04178 -0.08507,-0.08524 -0.113269,-0.13971 -0.02641,-0.03532 -0.05934,-0.06206 -0.09103,-0.0925 -0.03934,-0.02506 -0.08529,-0.0418 -0.113678,-0.08073 -0.03087,-0.04282 -0.06643,-0.08122 -0.0988,-0.122739 -0.0472,-0.06755 -0.108367,-0.126777 -0.178772,-0.169755 0,0 0.259414,-0.16863 0.259414,-0.16863 z"
     inkscape:connector-curvature="0" />
  <path
     style="display:inline;fill:#000000;fill-opacity:1"
     id="path694"
     d="m 19.486978,15.674201 c -0.03387,-0.08348 -0.0917,-0.153829 -0.145477,-0.225063 -0.03038,-0.04728 -0.07976,-0.07458 -0.116266,-0.115372 -0.01766,-0.02521 -0.04863,-0.03008 -0.07164,-0.04786 -0.01223,-0.0094 -0.02279,-0.02088 -0.03463,-0.03082 -0.03053,-0.04644 -0.04952,-0.06119 -0.09254,-0.09242 -0.03485,-0.0352 -0.06024,-0.07808 -0.07611,-0.124823 -0.01726,-0.04358 -0.04125,-0.08368 -0.06242,-0.125473 -0.01726,-0.05624 -0.05525,-0.07418 -0.104526,-0.09643 -0.0474,-0.02458 -0.08658,-0.05993 -0.127864,-0.09294 -0.04128,-0.03286 -0.08676,-0.05918 -0.120133,-0.100712 -0.025,-0.03935 -0.06432,-0.06416 -0.09328,-0.09965 -0.03265,-0.03158 -0.05706,-0.06913 -0.08342,-0.105647 -0.02284,-0.04317 -0.04324,-0.08196 -0.08569,-0.108332 -0.04304,-0.028 -0.07176,-0.06881 -0.101658,-0.109151 -0.04419,-0.02788 -0.06453,-0.05189 -0.09534,-0.09335 -0.02133,-0.04471 -0.06546,-0.06358 -0.10359,-0.09079 -0.03307,-0.03625 -0.06969,-0.06706 -0.106924,-0.09848 -0.02344,-0.02099 -0.03057,-0.05381 -0.0555,-0.07347 -0.01107,-0.0087 -0.0236,-0.01546 -0.03479,-0.02404 -0.03927,-0.03699 -0.07345,-0.07694 -0.121359,-0.103226 -0.0503,-0.01502 -0.08489,-0.05465 -0.133253,-0.07365 -0.05377,-0.0054 -0.0769,-0.05006 -0.114215,-0.081 -0.037,-0.03591 -0.0716,-0.07452 -0.110387,-0.108534 -0.03491,-0.036 -0.07639,-0.06768 -0.122141,-0.0886 -0.0453,-0.01762 -0.07102,-0.05833 -0.108215,-0.08625 -0.04299,-0.02705 -0.08331,-0.05764 -0.124561,-0.08724 -0.05052,-0.0356 -0.08151,-0.09119 -0.114478,-0.142195 -0.04817,-0.06452 -0.100488,-0.125024 -0.161137,-0.178049 -0.05862,-0.06008 -0.130539,-0.104058 -0.194642,-0.157534 -0.02428,-0.02138 -0.03758,-0.04833 -0.05029,-0.07723 0,0 0.270036,-0.151593 0.270036,-0.151593 v 0 c 0.01021,0.02486 0.0211,0.04708 0.04225,0.0649 0.06453,0.05318 0.134662,0.09966 0.194017,0.158995 0.06232,0.05522 0.116749,0.117594 0.166123,0.184638 0.03196,0.04763 0.06116,0.09972 0.109925,0.1321 0.041,0.03074 0.08348,0.05904 0.125495,0.08829 0.03399,0.02899 0.06146,0.06375 0.104486,0.08091 0.04637,0.02547 0.08959,0.05744 0.126219,0.09572 0.03792,0.03489 0.07355,0.07223 0.110754,0.107884 0.03455,0.03187 0.05901,0.06464 0.108937,0.07325 0.04675,0.02302 0.08527,0.05899 0.134861,0.07689 0.04671,0.02953 0.08291,0.06927 0.123777,0.10577 0.0378,0.02799 0.06505,0.05991 0.09097,0.09871 0.0373,0.03011 0.0705,0.06343 0.105231,0.09644 0.04166,0.0279 0.08568,0.05269 0.109284,0.09929 0.0284,0.03876 0.05834,0.0631 0.09532,0.09347 0.02751,0.03792 0.05537,0.07497 0.0959,0.100414 0.04228,0.03134 0.06838,0.07082 0.09171,0.117378 0.0255,0.03615 0.05072,0.07203 0.08218,0.103546 0.0299,0.03442 0.06812,0.06101 0.09325,0.1 0.03294,0.03876 0.07847,0.06285 0.117,0.0955 0.03865,0.03227 0.07746,0.06435 0.12317,0.08646 0.05383,0.02474 0.09549,0.05542 0.115564,0.113949 0.02238,0.04296 0.04681,0.08471 0.06492,0.129685 0.01276,0.04069 0.03471,0.07866 0.06626,0.107709 0.03827,0.02653 0.06713,0.05686 0.09398,0.09463 0.03488,0.02976 0.07662,0.04844 0.108178,0.08202 0.03834,0.04015 0.0862,0.07075 0.116565,0.118914 0.05479,0.07416 0.112352,0.147693 0.150409,0.232301 0,0 -0.270304,0.150175 -0.270304,0.150175 z"
     inkscape:connector-curvature="0" />
  <path
     style="display:inline;fill:#000000;fill-opacity:1"
     id="path696"
     d="m 19.251057,14.952893 c 0.0454,0.08515 0.09925,0.164503 0.156639,0.241817 0.04298,0.047 0.08286,0.09579 0.122182,0.145674 0.04466,0.04054 0.07104,0.09179 0.0994,0.143657 0.01511,0.01996 0.04128,0.04789 0.07022,0.04105 0.01134,-0.0027 0.02006,-0.01189 0.03019,-0.01765 0.107653,-0.03731 0.199463,-0.100847 -0.209315,0.126562 -0.0048,0.0027 0.0095,-0.0057 0.0137,-0.0093 0.0088,-0.0075 0.0071,-0.0094 0.0091,-0.02056 -0.0061,-0.04986 -0.0419,-0.07569 -0.07777,-0.105575 -0.03991,-0.04155 -0.07604,-0.08714 -0.111179,-0.132849 -0.02317,-0.04458 -0.05906,-0.07924 -0.09768,-0.110438 -0.04584,-0.01962 -0.08575,-0.04432 -0.120633,-0.08037 -0.03436,-0.03533 -0.0813,-0.04114 -0.127954,-0.04592 -0.05667,-0.0056 -0.113529,-0.0161 -0.169111,-0.02897 0,0 0.253154,-0.175941 0.253154,-0.175941 v 0 c 0.05589,0.01082 0.112103,0.02095 0.16883,0.02621 0.05244,0.0084 0.102037,0.02231 0.139538,0.0625 0.0354,0.03381 0.07742,0.05343 0.118956,0.07826 0.03909,0.03386 0.07703,0.06964 0.1012,0.116135 0.03391,0.04379 0.06752,0.08864 0.107174,0.127326 0.04345,0.03611 0.07989,0.07144 0.09259,0.128852 0.01416,0.153771 -0.209746,0.182011 -0.334939,0.235782 -0.05264,0.01266 -0.09588,-0.01795 -0.124671,-0.06099 -0.02738,-0.05075 -0.05355,-0.09963 -0.0971,-0.1392 -0.03856,-0.05063 -0.07946,-0.09883 -0.120834,-0.147312 -0.05767,-0.07864 -0.110432,-0.159978 -0.159743,-0.244169 0,0 0.268022,-0.154583 0.268022,-0.154583 z"
     inkscape:connector-curvature="0" />
  <path
     inkscape:connector-curvature="0"
     id="path49-3-2"
     style="color:#000000;font-style:normal;font-variant:normal;font-weight:normal;font-stretch:normal;font-size:medium;line-height:normal;font-family:sans-serif;font-variant-ligatures:normal;font-variant-position:normal;font-variant-caps:normal;font-variant-numeric:normal;font-variant-alternates:normal;font-feature-settings:normal;text-indent:0;text-align:start;text-decoration:none;text-decoration-line:none;text-decoration-style:solid;text-decoration-color:#000000;letter-spacing:normal;word-spacing:normal;text-transform:none;writing-mode:lr-tb;direction:ltr;text-orientation:mixed;dominant-baseline:auto;baseline-shift:baseline;text-anchor:start;white-space:normal;shape-padding:0;clip-rule:nonzero;display:inline;overflow:visible;visibility:visible;opacity:1;isolation:auto;mix-blend-mode:normal;color-interpolation:sRGB;color-interpolation-filters:linearRGB;solid-color:#000000;solid-opacity:1;vector-effect:none;fill:#000000;fill-opacity:1;fill-rule:nonzero;stroke:none;stroke-width:1;stroke-linecap:butt;stroke-linejoin:miter;stroke-miterlimit:4;stroke-dasharray:none;stroke-dashoffset:0;stroke-opacity:1;color-rendering:auto;image-rendering:auto;shape-rendering:auto;text-rendering:auto;enable-background:accumulate"
     d="m 20.060106,15.08214 c 0.01798,0.0172 0.03782,0.03401 0.05859,0.05273 0.0014,-0.0012 0.0025,-0.0027 0.0039,-0.0039 -0.03166,-0.02779 -0.04382,-0.03689 -0.05859,-0.04883 -0.0013,-4.7e-5 -0.0026,4.7e-5 -0.0039,0 z m -1.648438,2.490233 c 0.0026,0.0034 0.0071,0.01594 0.0098,0.01953 0.002,-0.0061 0.0058,-0.01149 0.0078,-0.01758 -0.0061,-0.0015 -0.01137,8.41e-4 -0.01758,-0.002 z m -0.982422,3.380859 c 0.0047,0.01294 0.01126,0.02585 0.01367,0.03906 0.02256,0.01453 0.02982,0.0114 0.04687,0.01953 -0.02169,-0.0178 -0.04224,-0.03794 -0.06055,-0.05859 z m 12.527343,0.115234 c -0.0256,0.07662 -0.05511,0.151385 -0.08398,0.226563 0.0052,-0.0065 0.0082,-0.01487 0.01367,-0.02149 -1.01e-4,0.0018 0.02736,-0.04925 0.03906,-0.07031 0.0063,-0.02606 0.02294,-0.05906 0.03906,-0.08203 -0.02794,0.04345 -0.01038,0.05072 -0.0332,0.04101 0.04365,-0.192237 0.02354,-0.0926 0.02539,-0.09375 z m -12.486328,0.03516 c 4.67e-4,0.0032 9e-5,0.0065 0,0.0098 0.04055,0.08318 0.08297,0.170124 0.07617,0.263672 0.0023,0.06912 -0.0068,0.137926 -0.0098,0.207031 0.03496,0.09538 0.08773,0.182021 0.126954,0.275391 0.002,-0.03724 0.01,-0.07436 0.0059,-0.111328 -0.0073,-0.06024 -0.02633,-0.118811 -0.04102,-0.177734 -0.0159,-0.03087 -0.03388,-0.06045 -0.04883,-0.0918 -0.0094,-0.01973 0.01821,0.02299 0.03906,0.05273 -0.01695,-0.06461 -0.02917,-0.130483 -0.04492,-0.195313 -0.02864,-0.05329 -0.05676,-0.116403 -0.07227,-0.144531 -0.02291,-0.04156 0.0458,0.08325 0.06836,0.125 0.0015,0.0064 0.0023,0.01309 0.0039,0.01953 0.06905,0.128471 0.155843,0.283066 0.17578,0.347657 0.01867,0.06047 0.02745,0.123289 0.03906,0.185547 0.0055,0.01028 0.01014,0.02094 0.01563,0.03125 0.0062,0.03564 0.0064,0.04838 0.01758,0.107422 0.0014,0.0077 0.0025,0.0061 0.0039,0.01367 0.01787,0.09498 0.04386,0.23318 0.0293,0.175782 -0.01686,-0.06642 -0.02948,-0.133475 -0.04102,-0.201172 -0.0178,-0.04247 -0.03653,-0.08464 -0.05469,-0.126953 0.01525,0.02785 0.03352,0.05439 0.04492,0.08398 -0.0048,-0.02816 -0.01037,-0.05594 -0.01563,-0.08398 -0.04167,-0.07767 -0.0835,-0.154659 -0.125,-0.232422 0.06863,0.218232 0.129232,0.438734 0.199218,0.65625 0.01581,0.03113 0.02668,0.06484 0.04297,0.0957 -0.001,-0.04615 -0.0015,-0.100841 -0.01172,-0.150391 -0.01412,-0.06805 -0.03934,-0.133539 -0.0625,-0.199218 0.02526,0.06019 0.05156,0.120078 0.07813,0.179687 -0.01132,-0.03066 -0.0049,-0.02593 -0.02344,-0.07422 -0.01582,-0.04111 0.06332,0.16502 0.04492,0.125 -0.0077,-0.01669 -0.01398,-0.03401 -0.02148,-0.05078 0.01994,0.05402 0.03524,0.102257 0.04102,0.130859 0.0144,-0.162602 0.03378,0.0056 0.05078,0.226563 0.03791,0.06663 0.08682,0.126158 0.126954,0.191406 0.158294,0.101484 0.279722,0.315045 0.382812,0.482422 0.04158,0.06751 0.06694,0.131298 0.08203,0.189453 0.11506,0.144715 0.242698,0.278776 0.369141,0.414063 0.01857,0.01592 0.03439,0.02984 0.04687,0.05078 1.289267,1.352328 3.129766,2.208984 5.18164,2.208984 2.119784,0 4.013922,-0.911463 5.306642,-2.341797 -0.0632,8.74e-4 -0.126275,-3.96e-4 -0.1875,-0.0332 -0.0069,-0.0032 0.0013,-0.0012 -0.0039,-0.0039 h -0.01365 -0.185547 -0.21875 -0.21875 -0.203125 -0.34375 c -0.02253,0 -0.03154,-0.0106 -0.05078,-0.01367 -1.048063,0.853039 -2.384434,1.392578 -3.88086,1.392578 -1.619163,0 -3.066903,-0.612202 -4.144531,-1.591797 l -0.08594,0.0039 c -0.04434,-0.03486 -0.09894,-0.05995 -0.134766,-0.103516 -0.0017,-0.0021 -1.56e-4,-0.0053 -0.002,-0.0078 -0.04763,-0.01325 -0.08223,-0.01835 -0.134765,-0.06641 -0.01274,-0.01165 -0.03744,-0.02412 -0.04102,-0.03125 -0.0089,-0.0024 -0.03931,-0.0063 -0.0332,-0.0078 0.009,-0.0022 0.01501,5.69e-4 0.02734,0.0039 7.68e-4,-4.2e-4 -0.0057,-0.0038 -0.0039,-0.0039 0.0048,-2.85e-4 0.009,0.0029 0.01367,0.0039 0.0024,5.53e-4 0.01531,0.0037 0.01172,0.002 -0.136069,-0.06571 -0.118395,-0.0068 -0.179687,-0.101562 -0.0014,-0.0021 0.0053,-1.02e-4 0.0078,0 -0.01901,-0.01968 -0.03985,-0.048 -0.0625,-0.06445 -0.0048,-0.0035 -0.0083,-0.006 -0.01563,-0.0098 -0.01607,-0.0032 0.0052,0.0026 -0.02539,-0.0039 -0.05386,-0.02989 -0.09625,-0.05007 -0.142579,-0.101563 -0.01535,-0.01706 -0.0189,-0.04289 -0.02734,-0.06641 -0.0362,-0.01222 -0.07203,-0.01976 -0.103517,-0.05664 -0.0019,-0.0022 -0.0039,-0.0016 -0.0059,-0.0039 -0.0074,-0.0057 -0.01496,-0.01096 -0.02148,-0.01758 -0.01475,-0.01498 -0.02612,-0.03421 -0.03906,-0.05078 0.0034,9.68e-4 0.01188,0.0067 0.0098,0.0039 -0.0218,-0.02896 -0.05452,-0.04953 -0.08203,-0.07227 -0.01021,-0.0098 -0.01837,-0.01945 -0.03125,-0.0293 0,0 -0.002,-0.002 -0.002,-0.002 -0.0059,-0.0051 -0.01881,-0.0109 -0.01563,-0.01563 -0.0012,5.99e-4 -0.0028,-0.0029 -0.0039,-0.002 -0.01982,-0.0144 -0.02386,-0.02876 -0.03125,-0.0332 -9.03e-4,0.02922 -0.06643,-0.05015 -0.07617,-0.06055 -0.07469,-0.07972 -0.08316,-0.08014 -0.09961,-0.148437 0.0022,0.0021 -0.01174,-0.01294 -0.02148,-0.03516 -0.03254,-0.02942 -0.06358,-0.05801 -0.0957,-0.08789 -0.0071,-0.03794 -0.01744,-0.07684 -0.02148,-0.115235 -6.44e-4,-0.006 6.98e-4,-0.01163 0.002,-0.01758 l -0.0078,-0.0059 c -0.003,-0.0047 -0.0035,-0.01006 -0.0078,-0.01367 -0.02118,-0.01801 -0.04491,-0.03315 -0.06641,-0.05078 -0.02425,-0.01988 -0.04263,-0.04729 -0.07227,-0.06055 -0.210379,-0.179646 -0.0317,-0.02499 -0.03711,-0.03125 -0.01389,-0.0161 -0.02957,-0.03212 -0.04492,-0.04687 -0.0144,-0.01636 -0.03493,-0.0275 -0.04492,-0.04687 -0.0057,-0.01113 0.02093,0.01438 0.03125,0.02148 -0.0463,-0.02933 -0.08164,-0.06414 -0.115234,-0.09961 -0.0064,-0.0014 -0.01328,-0.0018 -0.01953,-0.0039 -0.02216,-0.0075 -0.03939,-0.02375 -0.05859,-0.03711 -0.0024,-0.0017 0.01014,0.0039 0.0078,0.002 -0.04481,-0.03588 -0.08636,-0.0591 -0.115234,-0.109375 0.0087,0.0052 0.03256,0.0228 0.02539,0.01563 -0.08218,-0.08246 -0.08703,-0.0787 -0.109375,-0.138672 0,0 -0.002,-0.002 -0.002,-0.002 0,0 -0.002,-0.002 -0.002,-0.002 -0.0024,-0.0022 -0.0055,-0.0036 -0.0078,-0.0059 -0.0105,-0.0077 -0.02073,-0.01576 -0.03125,-0.02344 0.0028,7.71e-4 0.01177,0.0041 0.0098,0.002 -0.02506,-0.02663 -0.05838,-0.04539 -0.07813,-0.07617 -0.01274,-0.01987 -0.01445,-0.04488 -0.01953,-0.06836 -0.0064,-0.0092 -0.01344,-0.01795 -0.01953,-0.02734 -0.02469,-0.0091 -0.036,-0.01158 -0.08594,-0.101563 -0.009,-0.01808 -0.01789,-0.03597 -0.02539,-0.05469 -0.0029,-0.0043 -0.0049,-0.0093 -0.0078,-0.01367 -0.0066,-0.0071 -0.01328,-0.01415 -0.01953,-0.02149 -0.0027,-0.005 -0.0047,-0.01059 -0.0078,-0.01563 -0.01719,-0.02569 -0.03513,-0.05061 -0.05469,-0.07422 -0.0097,-0.01173 0.0056,0.03196 0.01367,0.04492 0.014,0.02265 0.03723,0.03762 0.05078,0.06055 0.0055,0.0093 -0.01659,-0.0114 -0.02539,-0.01758 0.0087,0.0079 0.03534,0.02966 0.02539,0.02344 -0.07596,-0.04747 -0.100877,-0.07285 -0.138672,-0.103516 0.0071,0.0136 0.0067,0.0091 0.01563,0.0293 -0.01335,-0.01527 -0.02592,-0.03134 -0.03906,-0.04687 -0.0062,-0.0054 -0.01991,-0.01435 -0.02539,-0.01953 z m 0.48047,1.246093 c -0.0033,0.03678 -0.0086,0.01735 -0.0098,0.107422 -0.0116,-0.02333 0.01208,0.03195 0.01758,0.04687 0.0093,0.01686 0.01789,0.03401 0.02734,0.05078 -0.0091,-0.07138 -0.02874,-0.173322 -0.03516,-0.205078 z m 0.757811,0.107422 c 0.0055,0.0064 0.0076,0.0065 0.01172,0.0098 10e-4,8.24e-4 0.0029,-0.003 0.002,-0.0039 -0.0035,-0.003 -0.0093,-0.0036 -0.01367,-0.0059 z m 11.261719,0.625 c 0.01285,0.01751 0.01028,0.05085 0.01563,0.07617 0.01335,-0.01868 0.0259,-0.03783 0.03906,-0.05664 -0.0123,-0.0052 -0.02491,3.04e-4 -0.03711,-0.0078 -0.0061,-0.0043 -0.0079,-0.0075 -0.01367,-0.01172 -0.0013,-4.9e-5 -0.0026,3.5e-5 -0.0039,0 z" />
  <path
     inkscape:connector-curvature="0"
     id="path49-7"
     style="color:#000000;font-style:normal;font-variant:normal;font-weight:normal;font-stretch:normal;font-size:medium;line-height:normal;font-family:sans-serif;font-variant-ligatures:normal;font-variant-position:normal;font-variant-caps:normal;font-variant-numeric:normal;font-variant-alternates:normal;font-feature-settings:normal;text-indent:0;text-align:start;text-decoration:none;text-decoration-line:none;text-decoration-style:solid;text-decoration-color:#000000;letter-spacing:normal;word-spacing:normal;text-transform:none;writing-mode:lr-tb;direction:ltr;text-orientation:mixed;dominant-baseline:auto;baseline-shift:baseline;text-anchor:start;white-space:normal;shape-padding:0;clip-rule:nonzero;display:inline;overflow:visible;visibility:visible;opacity:1;isolation:auto;mix-blend-mode:normal;color-interpolation:sRGB;color-interpolation-filters:linearRGB;solid-color:#000000;solid-opacity:1;vector-effect:none;fill-opacity:1;fill-rule:nonzero;stroke:none;stroke-width:1;stroke-linecap:butt;stroke-linejoin:miter;stroke-miterlimit:4;stroke-dasharray:none;stroke-dashoffset:0;stroke-opacity:1;color-rendering:auto;image-rendering:auto;shape-rendering:auto;text-rendering:auto;enable-background:accumulate"
     d="m 9.4615208,15.18173 c -3.049585,0 -5.657118,1.871275 -6.636719,4.488281 h 0.02734 c 0.0061,6.27e-4 0.01762,-0.0036 0.02344,-0.002 9.49e-4,2.64e-4 0.0029,0.0016 0.0039,0.002 h 0.06055 c 0.03367,-0.01346 0.0618,-0.03125 0.111328,-0.03125 h 0.343745 0.203125 0.1875 0.144531 c 0.932971,-2.028425 3.03967,-3.457031 5.531251,-3.457031 1.9094952,0 3.5904012,0.844951 4.6972652,2.148437 0.0166,0.01602 0.03455,0.02399 0.05078,0.04297 h 0.002 c 0.133013,0.155735 0.323324,0.28561 0.425781,0.46875 0.02175,0.03888 0.03962,0.07981 0.06055,0.119141 0.01206,0.02266 -0.02185,-0.04534 -0.0332,-0.06836 0.05442,0.06286 0.03215,0.03937 0.04297,0.05274 0.03038,0.02922 0.05994,0.06026 0.0918,0.08789 0.01955,0.01696 -0.03529,-0.03949 -0.05273,-0.05859 0.04197,0.04489 0.08207,0.09279 0.126953,0.134765 0.01889,0.01767 -0.033,-0.0401 -0.04883,-0.06055 0.02977,0.03426 0.06008,0.0673 0.08984,0.101563 0.0013,5.56e-4 0.0026,0.0014 0.0039,0.002 -0.0183,-0.02242 -0.04366,-0.0532 -0.03125,-0.04102 0.01413,0.01387 0.02617,0.02987 0.03906,0.04492 0.03747,0.01609 0.07574,0.03097 0.113281,0.04687 0.03118,0.05603 0.06257,0.111945 0.09375,0.167969 0.0056,-1.9e-4 0.02133,0.01112 0.03125,0.01758 0.03503,0.02277 0.06922,0.04841 0.103516,0.07227 0.03361,0.02953 0.06795,0.05836 0.101562,0.08789 0.02831,0.0292 0.05356,0.06091 0.08399,0.08789 0.0031,0.0027 6e-6,-0.0096 0,-0.01367 0.01422,0.01341 0.02862,0.02774 0.04297,0.04102 0.01035,-0.01281 0.04281,0.02771 0.06445,0.04101 0.04413,0.05263 0.08869,0.105571 0.132812,0.158203 -0.0041,-0.0092 -0.01787,-0.0373 -0.01172,-0.0293 0.0127,0.01656 0.02284,0.03582 0.03516,0.05274 0.03397,0.03765 0.07224,0.07865 0.02148,0.02148 0.10542,0.04 0.146078,0.09411 0.21875,0.230469 0.0036,0.0036 0.0081,0.0062 0.01172,0.0098 0.132598,0.04824 0.166386,0.09513 0.232422,0.228515 0.0085,0.0054 0.01663,0.0091 0.02539,0.01172 0.0031,9.41e-4 0.0049,-0.0075 0.0078,-0.0059 0.09536,0.05191 0.02435,0.01361 0.04687,0.02734 -0.0064,-0.0093 -0.01208,-0.01952 -0.01758,-0.0293 -0.0078,-0.03921 -0.01677,-0.07768 -0.02344,-0.117188 -0.08311,-0.14468 -0.131596,-0.121149 -0.07422,-0.154297 -0.02684,-0.06412 -0.06108,-0.12532 -0.08789,-0.189453 -0.0074,-0.01773 -0.02621,-0.06925 -0.01367,-0.05469 0.02046,0.02377 0.0485,0.113799 0.03906,0.08399 -0.05672,-0.179533 -0.126933,-0.223617 -0.0625,-0.179688 0.03657,0.03874 0.0064,0.0088 0,-0.01172 -0.02037,-0.06517 -0.05021,-0.130911 -0.0625,-0.197266 -0.02428,-0.0278 -0.02161,-0.02307 -0.02344,-0.0332 -0.0016,-0.0087 0.01037,0.01028 0.01953,0.01758 -2.28e-4,-0.0019 1.81e-4,-0.004 0,-0.0059 -0.02976,-0.02715 -0.06056,-0.05286 -0.08594,-0.08399 -0.06137,-0.07529 -0.05141,-0.196272 -0.123047,-0.263672 -0.178844,-0.168256 -0.153989,-0.302516 -0.04883,-0.36914 C 15.53739,18.493164 15.321953,18.187315 15.090418,17.892667 14.967523,17.839347 14.894493,17.733908 14.844324,17.601651 13.547342,16.127025 11.619629,15.18173 9.4615118,15.18173 Z m 5.4609372,3.978515 c 0.004,0.0046 0.0078,0.0091 0.01172,0.01367 -0.0035,-0.0045 -0.0041,-0.0067 -0.0098,-0.01367 z m 0.01367,0.0059 c 0.01934,0.02291 0.03759,0.047 0.05859,0.06836 0.01851,0.01883 -0.02819,-0.04603 -0.04883,-0.0625 -0.0029,-0.0023 -0.0053,-0.0032 -0.0098,-0.0059 z m 0.224611,0.253866 c 0.0079,0.01426 0.0155,0.02871 0.02344,0.04297 -6.7e-4,-0.0033 6.46e-4,-0.0049 -0.002,-0.0098 -0.008,-0.01046 -0.01479,-0.02173 -0.02148,-0.0332 z m 0.822266,0.126953 c 0.0011,0.0024 -0.001,0.0054 0.002,0.0078 0.02729,0.02705 0.06095,0.05655 0.04687,0.04101 -0.01544,-0.01716 -0.0318,-0.03316 -0.04883,-0.04883 z m 0.226562,0.558594 c -0.0094,-0.03107 -0.0058,0.06616 0.002,0.09766 0.0048,0.0194 0.01646,0.03561 0.02734,0.05274 -0.0086,-0.05063 -0.01445,-0.10132 -0.0293,-0.150391 z m -0.220703,0.0918 c 0.005,0.008 0.0022,0.005 0.0078,0.01367 6.75e-4,0.001 -2.93e-4,-0.004 0,-0.0039 -0.0023,-0.0034 -0.0056,-0.0062 -0.0078,-0.0098 z m 0.25,0.25 c 0.0068,0.0113 0.0019,0.007 0.0098,0.01953 0.0011,0.0017 -4.68e-4,-0.006 0,-0.0059 -0.0035,-0.0045 -0.0065,-0.009 -0.0098,-0.01367 z m -13.6269532,0.0059 c -0.0051,-0.0052 0.01025,0.03009 0.0078,0.0293 0.0059,1.11e-4 0.01171,-1.24e-4 0.01758,0 -0.0036,-0.0041 -0.02261,-0.02646 -0.02539,-0.0293 z m 13.4902342,3.181641 c -0.0031,0.0015 -0.0047,0.0064 -0.0078,0.0078 0.0036,0.02051 0.0097,0.04743 0.01172,0.05859 0.0063,-0.0083 0.0092,0.01395 0.01172,0.01367 -4.46e-4,-0.0049 6.38e-4,-0.01084 0,-0.01563 -0.0018,-0.01375 -0.01037,-0.04076 -0.01563,-0.06445 z m -11.8203122,1.30855 c 0.01046,0.0038 0.02079,0.008 0.03125,0.01172 v -0.002 c -0.01028,-0.0036 -0.02103,-0.006 -0.03125,-0.0098 z" />
  <path
     style="display:inline;fill:#000000;fill-opacity:1"
     id="path692-3"
     d="m 16.016028,19.621603 c 0.07111,0.04941 0.135569,0.110692 0.185478,0.181599 0.03369,0.04041 0.06907,0.07882 0.09972,0.121834 0.02887,0.03333 0.07287,0.04584 0.108092,0.07148 0.03351,0.03397 0.06815,0.06254 0.09627,0.101551 0.0263,0.05402 0.06723,0.09463 0.109969,0.135284 0.0363,0.03707 0.08429,0.0588 0.119932,0.09597 0.03267,0.0384 0.04809,0.08418 0.06702,0.129712 0.01729,0.04368 0.03363,0.08813 0.05555,0.129775 0.03017,0.02878 0.06672,0.05222 0.101663,0.0755 0.04329,0.01916 0.07717,0.05501 0.101502,0.09492 0.01912,0.04645 0.02872,0.09594 0.05757,0.137829 0.02773,0.03948 0.0663,0.06926 0.100747,0.103074 0.03903,0.03714 0.07486,0.07591 0.09781,0.125003 0.01701,0.04999 0.05908,0.08038 0.09495,0.116049 0.03468,0.03031 0.07749,0.04792 0.116045,0.07205 0.04532,0.01742 0.08107,0.04447 0.113007,0.08078 0.03516,0.03379 0.05878,0.07725 0.0871,0.116786 0.03459,0.03415 0.05605,0.07826 0.08708,0.115239 0.04206,0.02724 0.06433,0.07216 0.09267,0.111551 0.0055,0.0053 0.01052,0.01126 0.01657,0.01596 0.03776,0.02936 4.21e-4,-0.0072 0.03915,0.02663 0.01906,0.01664 0.03139,0.03817 0.04648,0.05814 0.04088,0.03065 0.06903,0.07279 0.102757,0.1104 0.03662,0.03994 0.04396,0.09594 0.08785,0.129112 0.03328,0.03138 0.07364,0.05236 0.110837,0.07805 0.04059,0.03188 0.06315,0.07605 0.08994,0.118807 0.01702,0.02022 0.03269,0.04101 0.05139,0.05969 0,0 -0.264906,0.161312 -0.264906,0.161312 v 0 c -0.01886,-0.02101 -0.03625,-0.04308 -0.05388,-0.06513 -0.02491,-0.03881 -0.04521,-0.07959 -0.08369,-0.107312 -0.03929,-0.02469 -0.0779,-0.05021 -0.112669,-0.0812 -0.04147,-0.03808 -0.05528,-0.08967 -0.0898,-0.132976 -0.03428,-0.03834 -0.06461,-0.07952 -0.104538,-0.112482 -0.03056,-0.04111 -0.06393,-0.06802 -0.102302,-0.101545 -0.02779,-0.03938 -0.05197,-0.08072 -0.09192,-0.10963 -0.03045,-0.03821 -0.05373,-0.08163 -0.08776,-0.117038 -0.02783,-0.03853 -0.05117,-0.0806 -0.08566,-0.113571 -0.03106,-0.03306 -0.0668,-0.05436 -0.108007,-0.07296 -0.04174,-0.02325 -0.08433,-0.046 -0.119906,-0.07843 -0.03899,-0.03769 -0.08126,-0.0733 -0.100552,-0.125854 -0.02069,-0.04597 -0.05653,-0.08072 -0.09246,-0.115383 -0.03516,-0.03573 -0.07649,-0.06556 -0.103524,-0.108317 -0.02848,-0.04275 -0.04262,-0.09052 -0.05857,-0.138834 -0.0229,-0.03703 -0.05598,-0.06431 -0.09477,-0.08382 -0.03816,-0.02697 -0.08068,-0.05088 -0.109379,-0.08839 -0.02233,-0.04242 -0.03946,-0.08751 -0.0568,-0.132134 -0.01772,-0.04164 -0.02997,-0.08452 -0.06101,-0.119316 -0.03682,-0.03491 -0.08378,-0.05826 -0.118898,-0.0957 -0.04392,-0.04178 -0.08507,-0.08524 -0.113269,-0.13971 -0.02641,-0.03532 -0.05934,-0.06206 -0.09103,-0.0925 -0.03934,-0.02506 -0.08529,-0.0418 -0.113678,-0.08073 -0.03087,-0.04282 -0.06643,-0.08122 -0.0988,-0.122739 -0.0472,-0.06755 -0.108367,-0.126777 -0.178772,-0.169755 0,0 0.259414,-0.16863 0.259414,-0.16863 z"
     inkscape:connector-curvature="0" />
  <path
     style="display:inline;fill:#000000;fill-opacity:1"
     id="path694-0"
     d="m 20.268898,24.608389 c -0.03387,-0.08348 -0.0917,-0.153829 -0.145477,-0.225063 -0.03038,-0.04728 -0.07976,-0.07458 -0.116267,-0.115372 -0.01766,-0.02521 -0.04863,-0.03008 -0.07164,-0.04786 -0.01223,-0.0094 -0.02279,-0.02088 -0.03463,-0.03082 -0.03053,-0.04644 -0.04952,-0.06119 -0.09254,-0.09242 -0.03485,-0.0352 -0.06024,-0.07808 -0.07611,-0.124823 -0.01726,-0.04358 -0.04125,-0.08368 -0.06242,-0.125473 -0.01726,-0.05624 -0.05525,-0.07418 -0.104526,-0.09643 -0.0474,-0.02458 -0.08658,-0.05993 -0.127865,-0.09294 -0.04128,-0.03286 -0.08676,-0.05918 -0.120133,-0.100712 -0.025,-0.03935 -0.06432,-0.06416 -0.09328,-0.09965 -0.03265,-0.03158 -0.05706,-0.06913 -0.08342,-0.105647 -0.02284,-0.04317 -0.04324,-0.08196 -0.08569,-0.108332 -0.04304,-0.028 -0.07176,-0.06881 -0.101658,-0.109151 -0.04419,-0.02788 -0.06453,-0.05189 -0.09534,-0.09335 -0.02133,-0.04471 -0.06546,-0.06358 -0.10359,-0.09079 -0.03307,-0.03625 -0.06969,-0.06706 -0.106924,-0.09848 -0.02344,-0.02099 -0.03057,-0.05381 -0.0555,-0.07347 -0.01107,-0.0087 -0.0236,-0.01546 -0.03479,-0.02404 -0.03927,-0.03699 -0.07345,-0.07694 -0.121358,-0.103226 -0.0503,-0.01502 -0.08489,-0.05465 -0.133254,-0.07365 -0.05377,-0.0054 -0.0769,-0.05006 -0.114215,-0.081 -0.037,-0.03591 -0.0716,-0.07452 -0.110386,-0.108534 -0.03491,-0.036 -0.07639,-0.06768 -0.122142,-0.0886 -0.0453,-0.01762 -0.07102,-0.05833 -0.108215,-0.08625 -0.04299,-0.02705 -0.08331,-0.05764 -0.124561,-0.08724 -0.05052,-0.0356 -0.08151,-0.09119 -0.114478,-0.142195 -0.04817,-0.06452 -0.100488,-0.125024 -0.161137,-0.178049 -0.05862,-0.06008 -0.130539,-0.104058 -0.194642,-0.157534 -0.02428,-0.02138 -0.03758,-0.04833 -0.05029,-0.07723 0,0 0.270037,-0.151593 0.270037,-0.151593 v 0 c 0.01021,0.02486 0.0211,0.04708 0.04225,0.0649 0.06453,0.05318 0.134662,0.09966 0.194017,0.158995 0.06232,0.05522 0.11675,0.117594 0.166124,0.184638 0.03196,0.04763 0.06116,0.09972 0.109924,0.1321 0.041,0.03074 0.08348,0.05904 0.125495,0.08829 0.03399,0.02899 0.06146,0.06375 0.104487,0.08091 0.04637,0.02547 0.08959,0.05744 0.126218,0.09572 0.03792,0.03489 0.07355,0.07223 0.110754,0.107884 0.03455,0.03187 0.05901,0.06464 0.108937,0.07325 0.04675,0.02302 0.08527,0.05899 0.134862,0.07689 0.04671,0.02953 0.08291,0.06927 0.123777,0.10577 0.0378,0.02799 0.06505,0.05991 0.09097,0.09871 0.0373,0.03011 0.0705,0.06343 0.105231,0.09644 0.04166,0.0279 0.08568,0.05269 0.109284,0.09929 0.0284,0.03876 0.05834,0.0631 0.09532,0.09347 0.02751,0.03792 0.05537,0.07497 0.0959,0.100414 0.04228,0.03134 0.06838,0.07082 0.09171,0.117378 0.0255,0.03615 0.05072,0.07203 0.08218,0.103546 0.0299,0.03442 0.06812,0.06101 0.09325,0.1 0.03294,0.03876 0.07847,0.06285 0.117,0.0955 0.03865,0.03227 0.07746,0.06435 0.123171,0.08646 0.05383,0.02474 0.09549,0.05542 0.115563,0.113949 0.02238,0.04296 0.04681,0.08471 0.06492,0.129685 0.01276,0.04069 0.03471,0.07866 0.06626,0.107709 0.03827,0.02653 0.06713,0.05686 0.09398,0.09463 0.03488,0.02976 0.07662,0.04844 0.108179,0.08202 0.03834,0.04015 0.0862,0.07075 0.116564,0.118914 0.05479,0.07416 0.112352,0.147693 0.150409,0.232301 0,0 -0.270304,0.150175 -0.270304,0.150175 z"
     inkscape:connector-curvature="0" />
  <path
     style="display:inline;fill:#000000;fill-opacity:1"
     id="path800"
     d="m 15.753459,18.853038 c 0.05901,0.07034 0.09052,0.15517 0.125669,0.238308 0.0073,0.03918 0.03608,0.06204 0.05741,0.09231 0.01075,0.01525 0.01926,0.03197 0.02948,0.04759 0.03237,0.04943 0.04304,0.107954 0.05865,0.16396 0.0168,0.05325 0.0484,0.094 0.09095,0.129133 0.04931,0.02431 0.08455,0.06644 0.124118,0.102966 0.03576,0.02757 0.07415,0.0502 0.11368,0.07195 0.03769,0.03411 0.07407,0.07168 0.106531,0.111136 0.03674,0.04814 0.06407,0.100506 0.10227,0.147564 0.03793,0.02495 0.06682,0.06158 0.104469,0.08673 0.0486,0.03308 0.08328,0.07778 0.114438,0.127082 0.04015,0.05691 0.06081,0.123251 0.08281,0.188483 0.01956,0.05364 0.0696,0.08114 0.116802,0.108224 0.06434,0.02155 0.122071,0.04716 0.174434,0.09095 0.045,0.05067 0.08575,0.104693 0.134353,0.152103 0.04505,0.04335 0.07788,0.09524 0.112277,0.146676 0.03359,0.04083 0.07646,0.07091 0.107689,0.113667 0.02942,0.03868 0.05829,0.07707 0.09344,0.110778 0.0343,0.03632 0.06709,0.0745 0.103917,0.108336 0.03447,0.03725 0.05996,0.08039 0.08003,0.126752 0.03253,0.04601 0.06273,0.09262 0.09176,0.141127 0.02354,0.04431 0.04469,0.08967 0.06541,0.135382 0.028,0.04086 0.05669,0.08107 0.08621,0.120841 0.03063,0.03954 0.06102,0.07874 0.0908,0.119097 0.02996,0.04713 0.07302,0.08245 0.10417,0.128862 0.0048,0.0095 0.0096,0.01894 0.0144,0.02841 0,0 -0.268879,0.153144 -0.268879,0.153144 v 0 c -0.0041,-0.0083 -0.0083,-0.01664 -0.01238,-0.02497 -0.03115,-0.04578 -0.07537,-0.07999 -0.103984,-0.127671 -0.02939,-0.0407 -0.06105,-0.0788 -0.09096,-0.118975 -0.03016,-0.04183 -0.06104,-0.08298 -0.08906,-0.126319 -0.02083,-0.04447 -0.04094,-0.08916 -0.06387,-0.132579 -0.02927,-0.04979 -0.06085,-0.09682 -0.09327,-0.144499 -0.01908,-0.04221 -0.04184,-0.08237 -0.07432,-0.115895 -0.03587,-0.03501 -0.06948,-0.07229 -0.103919,-0.108688 -0.03602,-0.03511 -0.06561,-0.07523 -0.09595,-0.115202 -0.03195,-0.04234 -0.07728,-0.07173 -0.108295,-0.115237 -0.03281,-0.05012 -0.06536,-0.09952 -0.108967,-0.141422 -0.04659,-0.04776 -0.08731,-0.100447 -0.132385,-0.149498 -0.05226,-0.04084 -0.112425,-0.06003 -0.172221,-0.08708 -0.05302,-0.0326 -0.106244,-0.06545 -0.127944,-0.127184 -0.02088,-0.06297 -0.04015,-0.127243 -0.07911,-0.181935 -0.02949,-0.04615 -0.0633,-0.08601 -0.109285,-0.116524 -0.03774,-0.02923 -0.07192,-0.06336 -0.108454,-0.09389 -0.03788,-0.0471 -0.06429,-0.09999 -0.10169,-0.14729 -0.03077,-0.03609 -0.06427,-0.07198 -0.101246,-0.101396 -0.04078,-0.0239 -0.08171,-0.04715 -0.117592,-0.07831 -0.03842,-0.03719 -0.0757,-0.07535 -0.122737,-0.102051 -0.04571,-0.04057 -0.08133,-0.08583 -0.100141,-0.144891 -0.01476,-0.05291 -0.02444,-0.108524 -0.05431,-0.155522 -0.03115,-0.04784 -0.07081,-0.09021 -0.08876,-0.145356 -0.03318,-0.08074 -0.06146,-0.163893 -0.121768,-0.229857 0,0 0.265349,-0.159315 0.265349,-0.159315 z"
     inkscape:connector-curvature="0" />
  <path
     style="display:inline;fill:#000000;fill-opacity:1"
     id="path802"
     d="m 15.628917,18.639093 c 0.0581,0.07745 0.119941,0.15194 0.176803,0.230432 0.03242,0.04367 0.07096,0.08185 0.106509,0.122729 0.0418,0.03039 0.05411,0.07687 0.0718,0.122298 0.02854,0.04112 0.07284,0.0696 0.112378,0.0998 0.03668,0.04117 0.0883,0.06128 0.133367,0.09078 0.03663,0.03495 0.0647,0.07851 0.09351,0.120078 0.02872,0.04224 0.0693,0.07379 0.09818,0.115865 0.02986,0.04 0.06264,0.0774 0.08639,0.121495 0.03344,0.0493 0.04761,0.107983 0.08958,0.151123 0.03865,0.04782 0.08834,0.08376 0.132322,0.125976 0.03867,0.04498 0.06478,0.09828 0.08939,0.151744 0.02671,0.04878 0.05006,0.101543 0.09357,0.137697 0.04301,0.03068 0.07555,0.07084 0.110553,0.109763 0.04597,0.04357 0.09856,0.07892 0.137857,0.128962 0.03415,0.04051 0.06819,0.08009 0.08891,0.129233 0.0034,0.0067 0.0068,0.01342 0.01014,0.02013 0,0 -0.269403,0.153497 -0.269403,0.153497 v 0 c -0.0037,-0.0074 -0.0075,-0.01483 -0.01121,-0.02224 -0.01863,-0.04669 -0.0531,-0.08298 -0.08411,-0.121926 -0.03939,-0.04874 -0.09311,-0.08254 -0.13672,-0.12739 -0.03446,-0.03799 -0.06819,-0.07552 -0.109336,-0.106675 -0.04392,-0.04182 -0.07143,-0.09557 -0.09974,-0.148615 -0.02333,-0.04968 -0.04624,-0.100401 -0.08305,-0.141896 -0.04516,-0.04197 -0.09444,-0.0795 -0.133779,-0.127541 -0.04157,-0.04696 -0.06014,-0.105224 -0.09335,-0.157772 -0.02363,-0.04274 -0.05704,-0.07859 -0.08518,-0.11836 -0.02916,-0.04156 -0.07035,-0.07304 -0.09827,-0.115736 -0.02659,-0.03801 -0.0515,-0.07927 -0.08664,-0.109762 -0.04694,-0.02843 -0.09664,-0.05286 -0.134899,-0.09342 -0.04342,-0.0344 -0.09289,-0.06481 -0.121227,-0.113742 -0.01709,-0.04264 -0.02691,-0.08418 -0.06652,-0.113022 -0.03663,-0.04121 -0.07421,-0.08147 -0.106684,-0.126204 -0.05605,-0.07918 -0.116302,-0.154845 -0.177421,-0.230114 0,0 0.266266,-0.15718 0.266266,-0.15718 z"
     inkscape:connector-curvature="0" />
  <path
     style="display:inline;fill:#000000;fill-opacity:1"
     id="path804"
     d="m 15.474481,19.159407 c 0.05888,0.0615 0.117191,0.123935 0.172801,0.18846 0.03502,0.03866 0.07353,0.07403 0.108289,0.11285 0.0323,0.03698 0.04921,0.08074 0.06893,0.124689 0.02548,0.04562 0.05261,0.09066 0.07426,0.13827 0.02304,0.05532 0.06588,0.0981 0.09957,0.146831 0.0398,0.04621 0.07042,0.09662 0.100456,0.149323 0.02275,0.0427 0.04755,0.08547 0.08729,0.114116 0.0066,0.0055 0.01368,0.01062 0.0199,0.01661 0.02026,0.01952 0.0141,0.01903 0.03479,0.03618 0.01751,0.01452 0.03934,0.02255 0.05855,0.0346 0.04511,0.02163 0.08086,0.05173 0.10418,0.09602 0.0175,0.04293 0.04977,0.07127 0.08109,0.103714 0.02799,0.0421 0.07143,0.06864 0.107714,0.102548 0.03152,0.04454 0.07644,0.07641 0.11523,0.114088 0.02923,0.0417 0.06892,0.07328 0.108729,0.104241 0.03709,0.03714 0.05997,0.08382 0.09292,0.124613 0.03038,0.04126 0.07782,0.06323 0.116622,0.09524 0.03986,0.04029 0.07644,0.08409 0.112935,0.127555 0.03896,0.06035 0.08544,0.115771 0.129222,0.172888 0.04662,0.04456 0.06612,0.102493 0.08916,0.160394 0.0135,0.04767 0.0469,0.08165 0.07714,0.118789 0.04019,0.04003 0.08646,0.07136 0.123561,0.114664 0.04247,0.04241 0.07481,0.09342 0.112587,0.139724 0.03071,0.04324 0.05551,0.08962 0.09151,0.128899 0.04174,0.03945 0.07551,0.08501 0.110096,0.130409 0.03591,0.02963 0.05939,0.07033 0.09066,0.104201 0.02616,0.0461 0.04185,0.09006 0.09222,0.11331 0.04472,0.02499 0.07919,0.0597 0.100866,0.105946 0.02005,0.03719 0.05057,0.06896 0.08231,0.09662 0.04156,0.04699 0.07935,0.09693 0.119338,0.145326 0.04381,0.05586 0.09221,0.107757 0.145647,0.15444 0.05165,0.03292 0.08883,0.0736 0.124148,0.122668 0.02928,0.04151 0.05912,0.08235 0.08855,0.123873 0.02971,0.04588 0.06019,0.09071 0.096,0.132232 0.03251,0.04822 0.0741,0.08614 0.117704,0.123423 0.04442,0.02679 0.07938,0.06518 0.118169,0.09888 0.0064,0.004 0.01285,0.008 0.01927,0.01207 0,0 -0.261184,0.166937 -0.261184,0.166937 v 0 c -0.0071,-0.0052 -0.01428,-0.01035 -0.02141,-0.01553 -0.03788,-0.03448 -0.07476,-0.07 -0.117757,-0.09828 -0.04507,-0.03795 -0.08489,-0.07997 -0.119592,-0.127877 -0.03653,-0.04222 -0.06797,-0.08777 -0.09817,-0.134589 -0.02899,-0.04179 -0.05981,-0.08171 -0.08847,-0.123624 -0.03351,-0.0474 -0.07196,-0.08386 -0.120028,-0.117209 -0.05325,-0.04902 -0.103032,-0.101542 -0.147757,-0.158534 -0.03906,-0.04726 -0.07623,-0.09617 -0.118194,-0.14085 -0.03375,-0.03178 -0.06729,-0.06583 -0.08853,-0.107453 -0.01822,-0.04065 -0.05151,-0.06807 -0.09041,-0.08905 -0.04886,-0.03012 -0.07201,-0.07262 -0.0981,-0.12211 -0.03087,-0.03537 -0.05679,-0.0749 -0.09172,-0.106686 -0.03345,-0.04511 -0.06766,-0.08914 -0.108636,-0.127973 -0.03592,-0.0401 -0.06125,-0.08683 -0.09203,-0.130707 -0.0369,-0.04651 -0.07043,-0.09596 -0.112037,-0.138592 -0.03794,-0.04253 -0.08611,-0.07294 -0.124326,-0.115208 -0.03278,-0.03916 -0.06699,-0.07681 -0.08184,-0.127186 -0.02216,-0.0555 -0.03914,-0.110917 -0.08454,-0.153506 -0.04267,-0.05733 -0.08897,-0.111834 -0.128404,-0.171313 -0.03571,-0.04157 -0.07064,-0.08447 -0.110444,-0.122067 -0.04152,-0.03193 -0.08873,-0.05785 -0.120204,-0.100948 -0.03149,-0.03894 -0.05271,-0.08425 -0.08901,-0.118645 -0.04059,-0.03155 -0.07943,-0.06557 -0.11016,-0.107116 -0.03914,-0.03697 -0.08276,-0.06979 -0.115272,-0.113153 -0.03755,-0.03329 -0.07916,-0.06268 -0.108551,-0.104123 -0.03373,-0.03405 -0.06667,-0.06647 -0.08586,-0.111459 -0.02033,-0.03944 -0.05704,-0.06107 -0.09537,-0.08159 -0.04329,-0.02526 -0.07981,-0.05502 -0.114993,-0.09065 -0.0405,-0.03385 -0.06977,-0.07761 -0.09353,-0.124561 -0.02919,-0.05209 -0.05951,-0.101436 -0.0986,-0.14708 -0.03496,-0.0501 -0.07877,-0.09455 -0.10289,-0.151508 -0.02119,-0.04777 -0.04867,-0.09269 -0.07443,-0.138083 -0.01863,-0.04086 -0.03304,-0.08222 -0.06409,-0.116279 -0.03553,-0.03843 -0.07297,-0.07505 -0.107692,-0.114261 -0.05418,-0.06352 -0.109581,-0.126774 -0.170596,-0.183747 0,0 0.262417,-0.1641 0.262417,-0.1641 z"
     inkscape:connector-curvature="0" />
  <path
     style="display:inline;fill:#000000;fill-opacity:1"
     id="path806"
     d="m 15.313557,19.077892 c 0.0435,0.08097 0.107239,0.148101 0.157572,0.224418 0.03151,0.05848 0.05281,0.122133 0.0672,0.186847 0.0037,0.05259 0.02567,0.09209 0.06273,0.12778 0.03207,0.03666 0.07229,0.06781 0.116448,0.08858 0.04185,0.02185 0.07671,0.05284 0.113674,0.08154 0.03059,0.031 0.06717,0.05795 0.107049,0.07579 0.04346,0.02538 0.085,0.04052 0.114799,0.08303 0.02951,0.05097 0.06794,0.09601 0.105376,0.141312 0.04782,0.0483 0.09328,0.0964 0.129069,0.154601 0.02713,0.04438 0.0611,0.08326 0.0936,0.123514 0.02888,0.04934 0.05271,0.09939 0.08584,0.146171 0.0395,0.03453 0.05682,0.08393 0.08566,0.126103 0.0374,0.04812 0.09095,0.07756 0.132914,0.12064 0.03245,0.05074 0.07709,0.08857 0.118746,0.131021 0.0447,0.04275 0.09133,0.08387 0.133584,0.129089 0.028,0.04073 0.04554,0.08652 0.0773,0.124776 0.04514,0.05014 0.08491,0.104915 0.125592,0.158686 0.03702,0.04959 0.04933,0.111297 0.07963,0.164408 0.02064,0.05181 0.05857,0.09177 0.100184,0.127548 0.04267,0.03188 0.06798,0.07248 0.09398,0.117584 0.02804,0.04746 0.06317,0.08835 0.105896,0.123096 0.0466,0.04047 0.08905,0.08552 0.135785,0.125738 0.04177,0.03911 0.0681,0.09145 0.09317,0.142213 0.0357,0.06819 0.07758,0.131896 0.112401,0.200643 0.03476,0.05857 0.08245,0.108147 0.127495,0.158922 0.03594,0.03898 0.06465,0.08133 0.08833,0.12876 0.03538,0.04453 0.05904,0.09481 0.08464,0.145048 0.03604,0.04605 0.04924,0.103684 0.0779,0.153494 0.01861,0.04934 0.0564,0.08379 0.08602,0.125539 0.03373,0.04538 0.05137,0.100257 0.0897,0.142116 0.0353,0.03595 0.06766,0.076 0.110795,0.102842 0.04743,0.03772 0.107479,0.04229 0.162579,0.0608 0.05114,0.01311 0.08901,0.05027 0.115512,0.09443 0.02418,0.0355 0.04371,0.07486 0.07948,0.100047 0.03658,0.03584 0.06613,0.07622 0.107725,0.107145 0.04559,0.03305 0.08482,0.07478 0.13222,0.105149 0.04766,0.03121 0.08986,0.06808 0.13243,0.105655 0.03724,0.03876 0.07974,0.06739 0.113279,0.109863 0.03161,0.05424 0.07645,0.09818 0.13176,0.127377 0.05518,0.02141 0.114286,0.03304 0.168157,0.05773 0.03429,0.03668 0.08069,0.04619 0.123988,0.06603 0,0 -0.257949,0.172045 -0.257949,0.172045 v 0 c -0.04445,-0.01721 -0.08625,-0.03594 -0.123785,-0.06606 -0.05615,-0.02132 -0.114941,-0.03587 -0.169472,-0.06126 -0.05629,-0.03413 -0.104373,-0.08015 -0.138608,-0.13683 -0.03283,-0.04002 -0.07545,-0.06753 -0.110306,-0.105696 -0.04127,-0.03722 -0.0845,-0.07076 -0.130453,-0.10209 -0.04623,-0.03311 -0.08756,-0.07273 -0.133082,-0.106873 -0.04018,-0.03228 -0.07125,-0.07187 -0.10843,-0.106902 -0.03596,-0.03057 -0.06016,-0.07019 -0.08527,-0.109744 -0.02371,-0.03914 -0.0581,-0.06505 -0.103024,-0.0756 -0.05872,-0.01642 -0.118025,-0.03032 -0.167663,-0.06827 -0.04325,-0.03093 -0.07901,-0.07084 -0.114994,-0.109725 -0.03721,-0.04409 -0.05796,-0.09782 -0.0916,-0.144496 -0.03063,-0.04221 -0.06771,-0.07876 -0.08713,-0.128565 -0.02875,-0.0505 -0.04283,-0.108015 -0.07885,-0.154741 -0.02549,-0.05045 -0.04948,-0.100397 -0.08472,-0.145237 -0.02248,-0.04504 -0.0506,-0.08467 -0.08426,-0.122068 -0.04567,-0.05353 -0.0954,-0.10452 -0.130127,-0.16617 -0.03502,-0.06868 -0.07715,-0.132269 -0.113526,-0.200138 -0.02408,-0.04692 -0.0474,-0.09627 -0.08711,-0.132062 -0.04565,-0.04111 -0.08903,-0.08469 -0.135288,-0.125179 -0.04434,-0.03831 -0.08237,-0.08135 -0.112217,-0.131989 -0.0242,-0.04232 -0.04848,-0.07928 -0.0885,-0.109231 -0.04273,-0.03928 -0.08339,-0.08154 -0.105643,-0.136196 -0.02919,-0.05232 -0.04171,-0.112092 -0.07649,-0.161429 -0.04044,-0.0535 -0.08065,-0.107536 -0.125997,-0.157006 -0.03092,-0.03804 -0.04955,-0.08227 -0.07608,-0.123013 -0.04246,-0.0445 -0.08762,-0.08646 -0.132386,-0.128585 -0.04308,-0.04133 -0.08509,-0.08166 -0.119281,-0.130973 -0.04406,-0.04323 -0.0986,-0.07505 -0.136111,-0.125346 -0.02876,-0.04212 -0.04664,-0.09061 -0.08519,-0.125846 -0.03249,-0.04626 -0.05675,-0.09549 -0.0852,-0.144088 -0.03362,-0.04108 -0.06707,-0.08205 -0.09494,-0.127435 -0.035,-0.05686 -0.08075,-0.10298 -0.126704,-0.150933 -0.03809,-0.04572 -0.07667,-0.09154 -0.107447,-0.142599 -0.0266,-0.03587 -0.07027,-0.04653 -0.106747,-0.0703 -0.04023,-0.02191 -0.07808,-0.0489 -0.110654,-0.08121 -0.03485,-0.02835 -0.0701,-0.05589 -0.110231,-0.07664 -0.04511,-0.02545 -0.08722,-0.05731 -0.121391,-0.09642 -0.03978,-0.04002 -0.06738,-0.08598 -0.07116,-0.143743 -0.01248,-0.06138 -0.03255,-0.121411 -0.06105,-0.177231 -0.04998,-0.07729 -0.112378,-0.146051 -0.159166,-0.22562 0,0 0.268022,-0.154583 0.268022,-0.154583 z"
     inkscape:connector-curvature="0" />
  <path
     style="display:inline;fill:#000000;fill-opacity:1"
     id="path808"
     d="m 18.128917,22.576593 c 0.04543,0.08957 0.112694,0.164646 0.169979,0.246375 0.03604,0.05648 0.06129,0.119163 0.100669,0.173482 0.01604,0.01991 0.03483,0.03933 0.05928,0.04887 0.02979,0.01162 0.04265,-0.0056 0.03572,-0.0018 -0.08474,0.04706 -0.170263,0.0927 -0.255394,0.139058 0.03645,-0.02354 0.03208,-0.07342 0.03829,-0.111791 0.251384,-0.11855 0.232428,-0.225916 0.312552,-0.109467 0.03009,0.04373 0.05509,0.09081 0.08451,0.134994 -0.0055,0.0031 0.02127,0.02295 0.02784,0.01475 0.0035,-0.0043 0.0077,-0.01879 0.0028,-0.01633 -0.08685,0.0433 -0.165569,0.102445 -0.254299,0.141748 -0.01001,0.0044 0.0057,-0.02124 0.0068,-0.03213 0.0015,-0.01404 6.51e-4,-0.02822 9.76e-4,-0.04233 -0.0083,-0.08215 -0.02304,-0.164979 -0.08631,-0.22239 -0.02185,-0.02054 -0.04458,-0.03939 -0.06903,-0.05667 0,0 0.261338,-0.165647 0.261338,-0.165647 v 0 c 0.02478,0.01887 0.04872,0.03854 0.07096,0.06043 0.06527,0.06688 0.08626,0.153094 0.09726,0.24414 8.21e-4,0.01849 0.0051,0.07797 -0.0011,0.08302 -0.125576,0.102231 -0.221625,0.265081 -0.323479,0.147135 -0.02212,-0.03444 -0.04311,-0.06955 -0.06536,-0.103904 -0.0061,-0.0094 -0.01185,-0.0191 -0.01852,-0.02813 -0.0048,-0.0065 -0.02214,-0.0134 -0.01575,-0.01828 0.0791,-0.06049 0.167446,-0.107832 0.251169,-0.161748 -0.027,0.03305 -9.96e-4,0.09531 -0.03062,0.130879 -0.201348,0.110664 -0.264601,0.240929 -0.396352,0.08288 -0.03826,-0.05521 -0.0645,-0.117223 -0.09942,-0.174513 -0.05663,-0.08205 -0.121673,-0.158296 -0.170718,-0.245493 0,0 0.266266,-0.15718 0.266266,-0.15718 z"
     inkscape:connector-curvature="0" />
  <path
     style="display:inline;fill:#000000;fill-opacity:1"
     id="path810"
     d="m 15.74846,19.615084 c 0.02608,0.10297 0.05551,0.166268 0.120129,0.249084 0.0378,0.05305 0.08165,0.101058 0.124979,0.149442 0.03958,0.0302 0.07694,0.06123 0.108937,0.09983 0.03371,0.03045 0.05915,0.06705 0.08617,0.103039 0.01939,0.04244 0.04889,0.075 0.07945,0.109498 0.03802,0.04011 0.0667,0.0888 0.111494,0.121938 0.04519,0.02932 0.07285,0.0654 0.09697,0.112772 0.02998,0.04588 0.06038,0.09132 0.09087,0.136829 0.02689,0.05327 0.05926,0.103162 0.09177,0.153038 0.03832,0.04041 0.06361,0.08919 0.09185,0.136362 0.03197,0.04328 0.06114,0.08823 0.09201,0.132205 0.02387,0.04615 0.05012,0.08787 0.0892,0.122667 0.04579,0.03425 0.07561,0.07679 0.105039,0.124631 0.03484,0.04058 0.06921,0.08215 0.104541,0.122546 0.0305,0.04582 0.07114,0.08277 0.107819,0.123247 0.02656,0.05026 0.06814,0.08524 0.109198,0.12271 0.04848,0.03569 0.08145,0.07994 0.113593,0.129734 0.0418,0.03742 0.07429,0.08288 0.110436,0.12534 0.04093,0.04734 0.07952,0.09596 0.11438,0.148005 0.02457,0.04226 0.04683,0.08554 0.06974,0.128715 0.02024,0.04728 0.03553,0.09638 0.0538,0.144403 0.02632,0.05165 0.06225,0.09347 0.102221,0.13457 0.04053,0.04299 0.08706,0.07952 0.132231,0.117456 0.05254,0.03307 0.108265,0.05756 0.160659,0.09155 0.04969,0.03989 0.102953,0.07631 0.14141,0.127739 0.03305,0.04101 0.06994,0.079 0.09744,0.124074 0.01916,0.04307 0.03985,0.08601 0.07045,0.122176 0.0046,0.0061 0.0092,0.01225 0.01381,0.01837 0,0 -0.266701,0.158412 -0.266701,0.158412 v 0 c -0.0044,-0.0058 -0.0088,-0.01157 -0.0132,-0.01736 -0.03031,-0.03815 -0.0536,-0.08106 -0.07233,-0.126001 -0.027,-0.04412 -0.06416,-0.08072 -0.0958,-0.121465 -0.0367,-0.04781 -0.08758,-0.08223 -0.134894,-0.118772 -0.05369,-0.03333 -0.112534,-0.05657 -0.163037,-0.09472 -0.04638,-0.03815 -0.09279,-0.07646 -0.134116,-0.12017 -0.04266,-0.044 -0.08018,-0.09043 -0.108623,-0.145196 -0.01841,-0.04667 -0.03343,-0.09456 -0.05245,-0.14099 -0.02237,-0.04228 -0.04406,-0.08466 -0.06786,-0.126154 -0.03407,-0.05108 -0.0715,-0.09903 -0.111873,-0.145281 -0.03718,-0.0435 -0.07274,-0.08811 -0.113333,-0.128556 -0.03029,-0.04775 -0.06304,-0.08853 -0.109079,-0.122839 -0.042,-0.0377 -0.08277,-0.07526 -0.111,-0.125035 -0.03724,-0.04034 -0.07668,-0.07881 -0.108087,-0.124153 -0.03586,-0.04222 -0.07298,-0.08349 -0.107417,-0.12671 -0.02763,-0.04556 -0.05703,-0.08464 -0.100173,-0.117527 -0.03935,-0.03744 -0.06898,-0.07976 -0.09313,-0.128262 -0.03072,-0.04495 -0.06091,-0.09004 -0.09293,-0.134165 -0.02775,-0.04706 -0.05388,-0.09455 -0.09102,-0.135409 -0.03226,-0.04984 -0.0647,-0.09958 -0.09171,-0.152571 -0.03111,-0.04651 -0.06222,-0.09292 -0.09276,-0.139833 -0.02251,-0.04319 -0.0489,-0.0743 -0.09026,-0.101512 -0.04372,-0.03696 -0.07529,-0.08478 -0.114343,-0.126341 -0.0314,-0.03479 -0.06086,-0.06917 -0.08113,-0.111805 -0.02623,-0.03579 -0.05289,-0.0705 -0.08512,-0.101383 -0.03241,-0.0376 -0.07098,-0.06666 -0.107925,-0.09934 -0.0439,-0.04883 -0.08702,-0.09838 -0.125032,-0.152068 -0.06488,-0.08486 -0.09659,-0.153233 -0.125578,-0.256591 0,0 0.270304,-0.150175 0.270304,-0.150175 z"
     inkscape:connector-curvature="0" />
  <rect
     style="display:inline;fill:#ffffff;fill-opacity:1"
     id="rect813-3"
     width="7.6897864"
     height="23.157747"
     x="12.404194"
     y="4.4429502" />
  <rect
     style="display:inline;fill:#ffffff;fill-opacity:1"
     id="rect817-9"
     width="2.2980971"
     height="0.17677669"
     x="17.61911"
     y="7.7133188" />
  <path
     style="display:inline;fill:#ff0000;fill-opacity:1;stroke-width:0.08838835"
     d="M 12.435856,15.979117 V 4.3993053 l 3.81808,0.02304 3.81808,0.02304 0.0047,11.5567317 0.0047,11.556732 -3.822797,4.4e-5 -3.822796,4.4e-5 z"
     id="path815"
     inkscape:connector-curvature="0" />
  <rect
     style="display:inline;fill:#ffffff;fill-opacity:1;stroke-width:1.01105011"
     id="rect819-4"
     width="4.0658646"
     height="2.2097092"
     x="16.028118"
     y="7.6249304" />
  <rect
     style="display:inline;fill:#ffffff;fill-opacity:1"
     id="rect819-2-3"
     width="3.9774761"
     height="2.2097092"
     x="16.160702"
     y="12.088544" />
  <rect
     style="display:inline;fill:#ffffff;fill-opacity:1"
     id="rect819-23-4"
     width="3.9774761"
     height="2.2097092"
     x="16.160702"
     y="16.507957" />
  <rect
     style="display:inline;fill:#ffffff;fill-opacity:1;stroke-width:1.01105011"
     id="rect819-8-7"
     width="4.0658646"
     height="2.2097092"
     x="16.072311"
     y="20.927376" />
  <rect
     style="display:inline;fill:#ffffff;fill-opacity:1;stroke-width:1.01105011"
     id="rect819-82-9"
     width="4.0658646"
     height="2.2097092"
     x="16.072311"
     y="25.346794" />
  <text
     xml:space="preserve"
     style="font-style:normal;font-variant:normal;font-weight:bold;font-stretch:normal;font-size:10.66666698px;line-height:1.25;font-family:Arial;-inkscape-font-specification:'Arial, Bold';font-variant-ligatures:normal;font-variant-caps:normal;font-variant-numeric:normal;text-align:start;letter-spacing:0px;word-spacing:0px;writing-mode:lr-tb;text-anchor:start;fill:#000000;fill-opacity:1;stroke:none"
     x="1.8983053"
     y="29.152542"
     id="text1645"><tspan
       sodipodi:role="line"
       id="tspan1643"
       x="1.8983053"
       y="29.152542">U</tspan></text>
  <text
     xml:space="preserve"
     style="font-style:normal;font-variant:normal;font-weight:bold;font-stretch:normal;font-size:10.66666698px;line-height:1.25;font-family:Arial;-inkscape-font-specification:'Arial, Bold';font-variant-ligatures:normal;font-variant-caps:normal;font-variant-numeric:normal;text-align:start;letter-spacing:0px;word-spacing:0px;writing-mode:lr-tb;text-anchor:start;fill:#000000;fill-opacity:1;stroke:none"
     x="21.694916"
     y="10.169492"
     id="text1649"><tspan
       sodipodi:role="line"
       id="tspan1647"
       x="21.694916"
       y="10.169492">K</tspan></text>
</svg>
