<?xml version="1.0" standalone="no"?>
<!DOCTYPE svg PUBLIC "-//W3C//DTD SVG 1.1//EN" "http://www.w3.org/Graphics/SVG/1.1/DTD/svg11.dtd">
<!--Generator: Xara Designer (www.xara.com), SVG filter version: 5.0.0.2-->
<svg stroke-width="0.501" stroke-linejoin="bevel" fill-rule="evenodd" xmlns:xlink="http://www.w3.org/1999/xlink" xmlns="http://www.w3.org/2000/svg" version="1.1" overflow="visible" width="18pt" height="18pt" viewBox="0 0 18 18">
 <defs>
  <marker id="DefaultArrow2" markerUnits="strokeWidth" viewBox="0 0 1 1" markerWidth="1" markerHeight="1" overflow="visible" orient="auto">
   <!-- REF_ARROW_STRAIGHT (-2) -->
   <g transform="scale(0.0092592592)">
    <!-- 1/108 -->
    <path d="M -9 54 L -9 -54 L 117 0 z"/>
   </g>
  </marker>
  <marker id="DefaultArrow3" markerUnits="strokeWidth" viewBox="0 0 1 1" markerWidth="1" markerHeight="1" overflow="visible" orient="auto">
   <!-- REF_ARROW_ANGLED -->
   <g transform="scale(0.0092592592)">
    <path d="M -27 54 L -9 0 L -27 -54 L 135 0 z"/>
   </g>
  </marker>
  <marker id="DefaultArrow4" markerUnits="strokeWidth" viewBox="0 0 1 1" markerWidth="1" markerHeight="1" overflow="visible" orient="auto">
   <!-- REF_ARROW_ROUNDED -->
   <g transform="scale(0.0092592592)">
    <path d="M -9,0 L -9,-45 C -9,-51.708 2.808,-56.580 9,-54 L 117,-9 C 120.916,-7.369 126.000,-4.242 126,0 C 126,4.242 120.916,7.369 117,9 L 9,54 C 2.808,56.580 -9,51.708 -9,45 z"/>
   </g>
  </marker>
  <marker id="DefaultArrow5" markerUnits="strokeWidth" viewBox="0 0 1 1" markerWidth="1" markerHeight="1" overflow="visible" orient="auto">
   <!-- REF_ARROW_SPOT -->
   <g transform="scale(0.0092592592)">
    <path d="M -54, 0 C -54,29.807 -29.807,54 0,54 C 29.807,54 54,29.807 54,0 C 54,-29.807 29.807,-54 0,-54 C -29.807,-54 -54,-29.807 -54,0 z"/>
   </g>
  </marker>
  <marker id="DefaultArrow6" markerUnits="strokeWidth" viewBox="0 0 1 1" markerWidth="1" markerHeight="1" overflow="visible" orient="auto">
   <!-- REF_ARROW_DIAMOND -->
   <g transform="scale(0.0092592592)">
    <path d="M -63,0 L 0,63 L 63,0 L 0,-63 z"/>
   </g>
  </marker>
  <marker id="DefaultArrow7" markerUnits="strokeWidth" viewBox="0 0 1 1" markerWidth="1" markerHeight="1" overflow="visible" orient="auto">
   <!-- REF_ARROW_FEATHER -->
   <g transform="scale(0.0092592592)">
    <path d="M 18,-54 L 108,-54 L 63,0 L 108,54 L 18, 54 L -36,0 z"/>
   </g>
  </marker>
  <marker id="DefaultArrow8" markerUnits="strokeWidth" viewBox="0 0 1 1" markerWidth="1" markerHeight="1" overflow="visible" orient="auto">
   <!-- REF_ARROW_FEATHER2 -->
   <g transform="scale(0.0092592592)">
    <path d="M -36,0 L 18,-54 L 54,-54 L 18,-18 L 27,-18 L 63,-54 L 99,-54 L 63,-18 L 72,-18 L 108,-54 L 144,-54 L 90,0 L 144,54 L 108,54 L 72,18 L 63,18 L 99,54 L 63,54 L 27,18 L 18,18 L 54,54 L 18,54 z"/>
   </g>
  </marker>
  <marker id="DefaultArrow9" markerUnits="strokeWidth" viewBox="0 0 1 1" markerWidth="1" markerHeight="1" overflow="visible" orient="auto">
   <!-- REF_ARROW_HOLLOWDIAMOND -->
   <g transform="scale(0.0092592592)">
    <path d="M 0,45 L -45,0 L 0, -45 L 45, 0 z M 0, 63 L-63, 0 L 0, -63 L 63, 0 z"/>
   </g>
  </marker>
  <filter id="StainedFilter">
   <feBlend mode="multiply" in2="BackgroundImage" in="SourceGraphic" result="blend"/>
   <feComposite in="blend" in2="SourceAlpha" operator="in" result="comp"/>
  </filter>
  <filter id="BleachFilter">
   <feBlend mode="screen" in2="BackgroundImage" in="SourceGraphic" result="blend"/>
   <feComposite in="blend" in2="SourceAlpha" operator="in" result="comp"/>
  </filter>
  <filter id="InvertTransparencyBitmapFilter">
   <feComponentTransfer>
    <feFuncR type="gamma" amplitude="1.055" exponent=".416666666" offset="-0.055"/>
    <feFuncG type="gamma" amplitude="1.055" exponent=".416666666" offset="-0.055"/>
    <feFuncB type="gamma" amplitude="1.055" exponent=".416666666" offset="-0.055"/>
   </feComponentTransfer>
   <feComponentTransfer>
    <feFuncR type="linear" slope="-1" intercept="1"/>
    <feFuncG type="linear" slope="-1" intercept="1"/>
    <feFuncB type="linear" slope="-1" intercept="1"/>
    <feFuncA type="linear" slope="1" intercept="0"/>
   </feComponentTransfer>
   <feComponentTransfer>
    <feFuncR type="gamma" amplitude="1" exponent="2.4" offset="0"/>
    <feFuncG type="gamma" amplitude="1" exponent="2.4" offset="0"/>
    <feFuncB type="gamma" amplitude="1" exponent="2.4" offset="0"/>
   </feComponentTransfer>
  </filter>
 </defs>
 <g id="Document" fill="none" stroke="black" font-family="Times New Roman" font-size="16" transform="scale(1 1)">
  <g id="Spread" transform="translate(0 -18)">
   <g id="Layer 1">
    <path d="M 25.057,9.418 L 49.057,9.418 L 49.057,-14.582 L 25.057,-14.582 L 25.057,9.418" stroke="none"/>
    <path d="M 33.471,-1.769 C 33.471,0.472 35.351,2.291 37.667,2.291 C 39.983,2.291 41.863,0.472 41.863,-1.769 C 41.863,-4.01 39.983,-5.829 37.667,-5.829 C 35.351,-5.829 33.471,-4.01 33.471,-1.769 Z" stroke="none" stroke-opacity="0.850980" fill="#800000" stroke-width="0" fill-rule="evenodd" stroke-linejoin="round" marker-start="none" marker-end="none" stroke-miterlimit="79.8403193612775" fill-opacity="0.000000"/>
    <g id="Group">
     <path d="M 18.006,18.006 L 18.006,0.005 L 0.005,0.005 L 0.005,18.006 L 18.006,18.006 Z" fill="#898989" stroke="none" stroke-width="0.75" stroke-linejoin="miter" marker-start="none" marker-end="none" stroke-miterlimit="79.8403193612775"/>
     <g id="Group_1">
      <path d="M 0.855,1.354 L 0.855,14.547 L 6.119,14.547 L 6.119,1.354 L 0.855,1.354 Z" stroke-linejoin="miter" stroke="none" stroke-width="0.75" fill="#b4b4b4" marker-start="none" marker-end="none" stroke-miterlimit="79.8403193612775"/>
      <g id="Group_2" stroke-linejoin="miter" stroke="none" stroke-width="0.75" fill="#898989" stroke-miterlimit="79.8403193612775">
       <path d="M 3.402,13.342 L 3.402,14.027 L 6.119,14.027 L 6.119,13.342 L 3.402,13.342 Z" marker-start="none" marker-end="none"/>
       <path d="M 3.402,11.713 L 3.402,12.398 L 6.119,12.398 L 6.119,11.713 L 3.402,11.713 Z" marker-start="none" marker-end="none"/>
       <path d="M 3.402,10.084 L 3.402,10.769 L 6.119,10.769 L 6.119,10.084 L 3.402,10.084 Z" marker-start="none" marker-end="none"/>
       <path d="M 3.402,8.455 L 3.402,9.14 L 6.119,9.14 L 6.119,8.455 L 3.402,8.455 Z" marker-start="none" marker-end="none"/>
       <path d="M 3.402,6.826 L 3.402,7.511 L 6.119,7.511 L 6.119,6.826 L 3.402,6.826 Z" marker-start="none" marker-end="none"/>
       <path d="M 3.402,5.197 L 3.402,5.882 L 6.119,5.882 L 6.119,5.197 L 3.402,5.197 Z" marker-start="none" marker-end="none"/>
       <path d="M 3.402,3.568 L 3.402,4.253 L 6.119,4.253 L 6.119,3.568 L 3.402,3.568 Z" marker-start="none" marker-end="none"/>
       <path d="M 3.402,1.939 L 3.402,2.624 L 6.119,2.624 L 6.119,1.939 L 3.402,1.939 Z" marker-start="none" marker-end="none"/>
      </g>
      <g id="Group_3">
       <g id="Group_4">
        <path d="M 6.89,5.528 C 7.542,5.511 7.859,5.163 7.914,4.553" fill="none" stroke-linejoin="round" stroke-linecap="round" stroke-width="0.75" stroke="#b4b4b4" stroke-miterlimit="79.8403193612775"/>
        <path d="M 9.052,5.528 C 8.4,5.511 8.081,5.163 8.027,4.553" fill="none" stroke-linejoin="round" stroke-linecap="round" stroke-width="0.75" stroke="#b4b4b4" stroke-miterlimit="79.8403193612775"/>
       </g>
       <g id="Group_5">
        <path d="M 9.164,5.528 C 9.816,5.511 10.135,5.163 10.188,4.553" fill="none" stroke-linejoin="round" stroke-linecap="round" stroke-width="0.75" stroke="#b4b4b4" stroke-miterlimit="79.8403193612775"/>
        <path d="M 11.326,5.528 C 10.675,5.511 10.357,5.163 10.302,4.553" fill="none" stroke-linejoin="round" stroke-linecap="round" stroke-width="0.75" stroke="#b4b4b4" stroke-miterlimit="79.8403193612775"/>
       </g>
      </g>
      <g id="Group_6" stroke-linejoin="round" stroke-linecap="round" stroke="#b4b4b4" stroke-width="0.75" fill="#282828" stroke-miterlimit="79.8403193612775">
       <g id="Group_7">
        <path d="M 11.528,5.528 C 12.18,5.511 12.497,5.163 12.552,4.553" fill="none"/>
        <path d="M 13.69,5.528 C 13.038,5.511 12.719,5.163 12.665,4.553" fill="none"/>
       </g>
       <g id="Group_8">
        <path d="M 13.802,5.528 C 14.454,5.511 14.773,5.163 14.826,4.553" fill="none"/>
        <path d="M 15.964,5.528 C 15.313,5.511 14.995,5.163 14.94,4.553" fill="none"/>
       </g>
      </g>
      <g id="Group_9" fill-rule="nonzero" stroke-linejoin="round" stroke-linecap="round" stroke="none" stroke-width="0.375" fill="#b4b4b4" stroke-miterlimit="79.8403193612775">
       <path d="M 11.178,14.71 C 11.178,15.339 10.986,15.821 10.604,16.156 C 10.221,16.491 9.657,16.658 8.912,16.658 C 8.166,16.658 7.603,16.491 7.221,16.156 C 6.839,15.821 6.649,15.34 6.649,14.713 L 6.649,11.462 L 7.968,11.462 L 7.968,14.638 C 7.968,14.991 8.042,15.254 8.19,15.427 C 8.338,15.601 8.579,15.687 8.912,15.687 C 9.24,15.687 9.48,15.604 9.631,15.438 C 9.783,15.271 9.858,15.005 9.858,14.638 L 9.858,11.462 L 11.178,11.462 L 11.178,14.71 Z" marker-start="none" marker-end="none"/>
       <path d="M 17.156,16.552 L 15.546,16.552 L 14.025,14.515 L 13.717,14.887 L 13.717,16.552 L 12.404,16.552 L 12.404,11.462 L 13.717,11.462 L 13.717,13.766 L 15.536,11.462 L 17.057,11.462 L 15.067,13.817 L 17.156,16.552 Z" marker-start="none" marker-end="none"/>
      </g>
     </g>
    </g>
   </g>
  </g>
 </g>
</svg>
